<svg width="1920" height="662" viewBox="0 0 1920 662" fill="none" xmlns="http://www.w3.org/2000/svg">
<rect width="1920" height="662" fill="#005BBB" fill-opacity="0.4"/>
<g opacity="0.12" clip-path="url(#clip0_202_126)">
<path fill-rule="evenodd" clip-rule="evenodd" d="M2355.33 -715.916C2245.56 -716.521 2136.45 -698.944 2032.43 -663.899C2023 -660.567 2012.71 -660.567 2003.28 -663.899C1899.27 -698.963 1790.16 -716.54 1680.39 -715.916C1478.24 -712.795 1098.09 -603.767 1103.5 -211.766C1109.33 202.083 1283.17 617.804 1557.35 873.312L1559.02 874.561C1604.75 905.999 1654.64 930.929 1707.24 948.633C1757.66 966.542 1810.71 975.964 1864.22 976.514C1911.31 976.742 1958.02 967.985 2001.83 950.714C2012.64 946.341 2024.74 946.341 2035.55 950.714C2079.37 967.951 2126.07 976.706 2173.16 976.514C2226.39 975.891 2279.15 966.47 2329.3 948.633C2381.96 931.043 2431.86 906.106 2477.53 874.561L2479.2 873.312C2752.55 617.804 2926.59 202.083 2932.21 -211.766C2937.62 -603.767 2557.27 -712.795 2355.33 -715.916ZM2456.71 842.726C2455.01 844.362 2453.2 845.891 2451.3 847.304C2421.11 868.111 2217.72 998.986 2028.27 907.852C2025.67 906.117 2022.65 905.111 2019.52 904.939H2016.61C2013.57 905.209 2010.64 906.208 2008.07 907.852C1818.83 998.986 1615.23 867.903 1585.25 847.304C1583.24 845.944 1581.36 844.413 1579.63 842.726C1314.61 593.044 1146.6 190.015 1140.98 -212.182C1138.69 -373.643 1205.72 -498.068 1339.8 -581.504C1443.46 -642.408 1561 -675.787 1681.22 -678.464C1793.18 -678.752 1904.34 -659.602 2009.74 -621.869C2011.35 -620.94 2013.11 -620.306 2014.94 -619.996H2021.19C2023.06 -620.4 2024.88 -621.029 2026.6 -621.869C2131.92 -659.632 2243.02 -678.783 2354.91 -678.464C2475.07 -675.779 2592.53 -642.4 2696.13 -581.504C2830.41 -498.276 2897.24 -373.435 2894.95 -212.182C2889.53 190.015 2721.53 593.668 2456.71 842.726ZM2315.15 -618.748C2219.14 -619.302 2123.69 -604.047 2032.64 -573.597C2023.18 -570.47 2012.96 -570.47 2003.49 -573.597C1912.56 -604.234 1817.15 -619.494 1721.19 -618.748C1542.78 -616.251 1206.77 -519.915 1211.55 -173.273C1216.76 191.263 1369.98 557.672 1611.69 783.843L1613.14 785.091C1653.33 812.99 1697.19 835.187 1743.47 851.049C1788.05 866.965 1834.99 875.334 1882.33 875.809C1922.97 876.252 1963.33 869.199 2001.41 855.002C2012.2 850.851 2024.14 850.851 2034.93 855.002C2073 869.217 2113.37 876.271 2154.01 875.809C2201.35 875.314 2248.28 866.947 2292.87 851.049C2339.13 835.278 2382.93 813.074 2422.99 785.091L2424.65 783.843C2666.36 558.713 2820.21 192.304 2824.58 -172.233C2828.95 -519.915 2493.15 -616.251 2314.73 -618.748H2315.15ZM2402.59 752.841C2400.93 754.47 2399.12 755.934 2397.17 757.21C2369.07 776.352 2192.32 889.334 2027.43 810.059C2025.76 809.062 2023.93 808.359 2022.02 807.979C2021.05 807.861 2020.07 807.861 2019.11 807.979H2016.19H2013.28C2011.42 808.324 2009.65 809.031 2008.07 810.059C1843.4 889.126 1665.61 776.352 1638.33 757.21C1636.36 755.885 1634.48 754.425 1632.71 752.841C1400.17 533.952 1252.77 178.779 1247.78 -173.897C1243.41 -491.41 1555.48 -579.839 1721.19 -582.128C1819.47 -582.444 1917.04 -565.615 2009.53 -532.4C2011.13 -531.66 2012.8 -531.101 2014.53 -530.735H2020.77C2022.51 -531.038 2024.2 -531.599 2025.77 -532.4C2118.24 -565.652 2215.83 -582.482 2314.11 -582.128C2480.65 -579.839 2792.93 -491.41 2787.73 -173.897C2782.73 178.779 2635.34 533.952 2402.59 752.841ZM2276.22 -524.701C2193.19 -525.049 2110.66 -511.981 2031.81 -486C2022.56 -482.877 2012.53 -482.877 2003.28 -486C1924.43 -511.981 1841.9 -525.049 1758.87 -524.701C1603.15 -522.412 1308.78 -437.936 1312.94 -133.324C1317.31 183.773 1450.97 503.366 1661.86 698.951L1663.53 700.407C1698.75 724.715 1737.14 744.105 1777.61 758.042C1816.7 771.669 1857.79 778.7 1899.19 778.849C1934.01 779.039 1968.58 772.905 2001.2 760.747C2011.67 756.802 2023.21 756.802 2033.68 760.747C2066.38 772.903 2101.01 779.036 2135.9 778.849C2177.3 778.673 2218.38 771.642 2257.48 758.042C2297.95 744.105 2336.34 724.715 2371.57 700.407L2373.44 698.951C2583.92 503.366 2717.78 183.773 2722.15 -133.324C2727.36 -437.936 2432.15 -522.412 2276.22 -524.701ZM2351.37 669.613C2349.63 671.299 2347.75 672.831 2345.75 674.191C2314.56 694.982 2280.84 711.694 2245.4 723.919C2210.59 737.943 2173.31 744.803 2135.79 744.088C2098.26 743.373 2061.27 735.098 2027.02 719.758C2025.51 718.73 2023.81 718.022 2022.02 717.677H2019.31H2016.19H2013.49C2011.64 718.06 2009.88 718.764 2008.28 719.758C1944.37 750.552 1871.29 752.216 1790.93 724.543C1755.18 712.271 1721.17 695.415 1689.76 674.399C1687.75 673.039 1685.87 671.508 1684.14 669.821C1482.2 479.646 1354.37 171.913 1351.04 -134.572C1347.08 -409.015 1617.31 -485.584 1760.75 -488.289C1845.9 -488.632 1930.45 -474.055 2010.57 -445.219C2012.09 -444.517 2013.7 -444.027 2015.36 -443.762C2016.25 -443.558 2017.18 -443.558 2018.07 -443.762H2021.4C2023.05 -444.027 2024.66 -444.517 2026.18 -445.219C2106.23 -473.636 2190.65 -487.791 2275.59 -487.041C2419.03 -485.168 2689.05 -408.599 2685.3 -133.324C2681.14 171.913 2553.31 479.646 2351.37 669.613ZM2237.08 -426.909C2167.53 -427.324 2098.36 -416.575 2032.22 -395.074C2023.11 -391.951 2013.23 -391.951 2004.12 -395.074C1937.95 -416.454 1868.8 -427.199 1799.26 -426.909C1665.61 -424.62 1415.78 -353.044 1419.32 -93.9988C1423.07 176.49 1536.53 446.98 1715.57 613.435L1717.03 614.683C1746.99 635.555 1779.71 652.152 1814.25 663.995C1847.68 675.865 1882.87 682.054 1918.34 682.305C1947.14 682.449 1975.74 677.591 2002.87 667.949C2013.01 664.206 2024.16 664.206 2034.3 667.949C2061.37 677.571 2089.9 682.429 2118.62 682.305C2154.09 682.03 2189.28 675.842 2222.71 663.995C2256.96 652.368 2289.46 636.128 2319.31 615.723L2320.77 614.475C2499.81 448.02 2612.23 177.531 2617.02 -92.9586C2620.56 -353.044 2370.11 -424.62 2237.08 -426.909ZM2299.53 584.097C2297.74 585.865 2295.79 587.467 2293.7 588.883C2269.97 604.904 2144.23 682.93 2027.23 626.543C2025.72 625.706 2024.11 625.077 2022.44 624.67H2019.73H2016.82H2014.32C2012.71 625.077 2011.17 625.707 2009.74 626.543C1981.23 639.372 1950.42 646.334 1919.16 647.013C1887.9 647.692 1856.83 642.075 1827.78 630.496C1797.95 620.286 1769.54 606.302 1743.26 588.883C1741.18 587.467 1739.23 585.865 1737.43 584.097C1566.51 423.676 1458.88 164.006 1455.34 -94.415C1452.01 -324.955 1679.14 -389.04 1799.68 -390.705C1871.48 -390.945 1942.77 -378.695 2010.36 -354.501L2014.94 -353.044H2021.19C2022.84 -353.309 2024.45 -353.799 2025.98 -354.501C2093.55 -378.777 2164.86 -391.031 2236.66 -390.705C2356.99 -389.04 2584.12 -324.955 2581 -94.415C2577.46 164.006 2469.62 423.676 2299.74 584.097H2299.53ZM2195.44 -329.116C2138.95 -329.493 2082.75 -320.997 2028.89 -303.94C2020.03 -301.034 2010.48 -301.034 2001.62 -303.94C1947.79 -321.099 1891.57 -329.597 1835.07 -329.116C1728.06 -327.66 1520.92 -267.944 1524.04 -53.6335C1526.96 167.96 1620.22 390.801 1767.41 528.959L1768.87 530.207C1793.6 547.729 1820.64 561.734 1849.23 571.821C1876.83 581.697 1905.89 586.901 1935.21 587.218C1957.85 587.231 1980.35 583.577 2001.83 576.398C2011.79 572.859 2022.67 572.859 2032.64 576.398C2054.04 583.58 2076.47 587.234 2099.05 587.218C2128.84 586.371 2158.27 580.461 2186.07 569.74C2214.66 559.653 2241.7 545.648 2266.43 528.127L2267.89 526.878C2415.08 390.801 2507.3 167.96 2510.22 -53.6335C2513.34 -267.944 2306.2 -327.66 2196.48 -329.116H2195.44ZM2245.4 498.789L2239.16 503.783C2218.34 518.139 2117.79 578.063 2024.94 533.536C2023.86 533.097 2022.74 532.749 2021.6 532.496H2012.65C2011.05 532.903 2009.5 533.533 2008.07 534.368C1985.22 544.593 1960.55 550.137 1935.52 550.673C1910.49 551.209 1885.61 546.726 1862.34 537.49C1838.52 529.192 1815.79 518.012 1794.68 504.199C1792.48 502.772 1790.39 501.172 1788.44 499.413C1650.2 368.33 1562.76 156.932 1559.43 -53.6335C1556.73 -240.895 1740.76 -291.872 1838.61 -293.329C1897 -293.478 1954.98 -283.481 2009.95 -263.783C2011.26 -263.149 2012.66 -262.727 2014.11 -262.534H2019.52L2023.89 -263.991C2076.96 -283.001 2132.83 -292.988 2189.19 -293.537H2195.02C2292.87 -292.08 2476.91 -240.271 2474.2 -53.8416C2472.12 156.308 2384.68 367.706 2246.45 498.789H2245.4ZM2157.76 -227.787C2114.92 -228.106 2072.29 -221.789 2031.39 -209.061C2022.86 -206.35 2013.69 -206.35 2005.16 -209.061C1964.25 -221.763 1921.63 -228.079 1878.79 -227.787C1824.72 -226.745 1771.85 -211.689 1725.36 -184.093C1695.46 -166.334 1670.95 -140.789 1654.45 -110.188C1637.94 -79.587 1630.07 -45.0803 1631.67 -10.3553C1634.17 162.758 1707.04 336.911 1821.95 443.859L1823.41 445.107C1842.62 458.673 1863.64 469.46 1885.87 477.15C1907.65 484.956 1930.6 489.035 1953.74 489.218C1970.47 489.283 1987.12 486.757 2003.08 481.727C2012.43 478.815 2022.45 478.815 2031.81 481.727C2047.78 486.686 2064.42 489.212 2081.15 489.218C2128.24 487.483 2173.82 472.084 2212.3 444.899L2213.76 443.651C2328.68 336.703 2401.13 162.55 2404.04 -10.5633C2407.17 -179.515 2244.16 -226.539 2157.76 -227.787ZM2195.23 415.769C2193.17 417.846 2190.86 419.663 2188.36 421.179C2169 433.663 2094.26 476.525 2025.56 441.986H2022.65H2020.56H2017.65H2015.36H2012.44C1943.74 475.693 1868.8 432.831 1849.64 421.179C1847.14 419.663 1844.83 417.846 1842.77 415.769C1742.64 306.117 1667.69 151.522 1665.61 -10.9794C1663.73 -153.298 1804.68 -193.039 1879.62 -194.08C1924.53 -194.169 1969.11 -186.496 2011.4 -171.4C2012.66 -170.798 2013.99 -170.378 2015.36 -170.152H2021.6C2022.98 -170.378 2024.31 -170.798 2025.56 -171.4C2067.84 -186.524 2112.43 -194.198 2157.34 -194.08C2232.29 -193.039 2373.23 -152.466 2371.36 -10.9794C2366.07 147.846 2303.52 299.408 2195.23 415.769Z" fill="white"/>
</g>
<defs>
<clipPath id="clip0_202_126">
<rect width="849" height="662" fill="white" transform="translate(1071)"/>
</clipPath>
</defs>
</svg>
