<svg width="203" height="60" viewBox="0 0 203 60" fill="none" xmlns="http://www.w3.org/2000/svg">
<g clip-path="url(#clip0_92_218)">
<path d="M66.6738 40.0171L68.5953 44.2891H67.8779L67.5128 43.4821H65.0726L64.7204 44.2891H64.0479L65.9693 40.0171H66.6738ZM65.3288 42.912H67.2502L66.3472 40.7088H66.2383L65.3288 42.912Z" fill="black"/>
<path d="M69.7289 40.9906C70.0751 40.7733 70.48 40.6682 70.8882 40.6896C71.3999 40.6757 71.9081 40.7787 72.3741 40.9906L72.1307 41.4902C71.7636 41.321 71.3627 41.2378 70.9586 41.2468C70.7006 41.2227 70.4409 41.2715 70.2093 41.3877C70.1666 41.4167 70.132 41.4559 70.1084 41.5018C70.0849 41.5477 70.0734 41.5988 70.0748 41.6503C70.0714 41.6965 70.0803 41.7427 70.1005 41.7843C70.1208 41.8259 70.1516 41.8615 70.19 41.8873C70.3126 41.957 70.4474 42.0026 70.5871 42.0218L71.3173 42.1563C71.6401 42.1825 71.9499 42.2953 72.214 42.4829C72.323 42.5684 72.4101 42.6786 72.4681 42.8045C72.526 42.9304 72.5531 43.0682 72.547 43.2067C72.5504 43.3559 72.5206 43.504 72.4597 43.6403C72.3987 43.7765 72.3082 43.8975 72.1947 43.9945C71.7926 44.2621 71.3119 44.3862 70.8305 44.3467C70.3181 44.3511 69.8124 44.2301 69.3574 43.9945L69.5944 43.4565C69.9786 43.6412 70.3979 43.7416 70.8241 43.7511C71.123 43.7787 71.4235 43.7186 71.6888 43.5782C71.7492 43.5403 71.7988 43.4872 71.8325 43.4243C71.8662 43.3614 71.8829 43.2908 71.8809 43.2195C71.8818 43.164 71.8688 43.1091 71.8431 43.0599C71.8173 43.0106 71.7797 42.9686 71.7336 42.9377C71.5748 42.8526 71.4006 42.8004 71.2212 42.784L70.4078 42.6302C70.1059 42.6002 69.8245 42.4641 69.6136 42.246C69.4666 42.0809 69.3907 41.8646 69.4023 41.6439C69.4035 41.5173 69.4335 41.3927 69.4901 41.2795C69.5467 41.1663 69.6284 41.0675 69.7289 40.9906Z" fill="black"/>
<path d="M76.3706 43.8279C76.013 44.1705 75.5368 44.3617 75.0416 44.3617C74.5464 44.3617 74.0703 44.1705 73.7126 43.8279C73.5346 43.6581 73.3928 43.4538 73.296 43.2276C73.1991 43.0014 73.1492 42.7578 73.1492 42.5117C73.1492 42.2656 73.1991 42.0221 73.296 41.7959C73.3928 41.5696 73.5346 41.3654 73.7126 41.1956C74.0703 40.853 74.5464 40.6618 75.0416 40.6618C75.5368 40.6618 76.013 40.853 76.3706 41.1956C76.5487 41.3654 76.6904 41.5696 76.7873 41.7959C76.8841 42.0221 76.9341 42.2656 76.9341 42.5117C76.9341 42.7578 76.8841 43.0014 76.7873 43.2276C76.6904 43.4538 76.5487 43.6581 76.3706 43.8279ZM74.1674 43.4116C74.3413 43.5863 74.5636 43.7047 74.8056 43.7515C75.0477 43.7982 75.2981 43.7712 75.5246 43.6739C75.751 43.5765 75.943 43.4134 76.0756 43.2056C76.2082 42.9978 76.2753 42.7549 76.2681 42.5085C76.2735 42.173 76.1471 41.8487 75.9159 41.6055C75.6787 41.3839 75.3662 41.2607 75.0416 41.2607C74.7171 41.2607 74.4046 41.3839 74.1674 41.6055C73.9362 41.8487 73.8097 42.173 73.8151 42.5085C73.8084 42.6752 73.8363 42.8415 73.8969 42.9969C73.9575 43.1523 74.0496 43.2935 74.1674 43.4116Z" fill="black"/>
<path d="M78.7787 43.3988C78.8956 43.5169 79.0355 43.6097 79.1897 43.6714C79.344 43.7331 79.5093 43.7624 79.6754 43.7575C79.8694 43.7603 80.0619 43.7237 80.2414 43.6499C80.4208 43.5761 80.5834 43.4668 80.7194 43.3284L81.1165 43.7703C80.9285 43.9603 80.7038 44.1099 80.456 44.2102C80.2082 44.3104 79.9426 44.359 79.6754 44.3531C79.426 44.3644 79.1769 44.3248 78.9434 44.2367C78.7098 44.1486 78.4966 44.0139 78.3168 43.8407C78.137 43.6675 77.9944 43.4595 77.8976 43.2293C77.8008 42.9992 77.752 42.7518 77.754 42.5021C77.7558 42.2633 77.8049 42.0272 77.8983 41.8073C77.9917 41.5875 78.1277 41.3883 78.2984 41.2212C78.6615 40.8678 79.1495 40.6721 79.6562 40.6768C79.9247 40.6649 80.1926 40.7114 80.4414 40.8131C80.6902 40.9149 80.914 41.0694 81.0973 41.266L80.6938 41.7015C80.5627 41.5585 80.4019 41.4459 80.2226 41.3717C80.0434 41.2976 79.85 41.2637 79.6562 41.2724C79.4919 41.266 79.328 41.2939 79.1751 41.3542C79.0221 41.4145 78.8834 41.506 78.7677 41.6229C78.6521 41.7398 78.562 41.8795 78.5032 42.033C78.4445 42.1866 78.4183 42.3507 78.4265 42.515C78.4261 42.8439 78.5522 43.1603 78.7787 43.3988Z" fill="black"/>
<path d="M82.7113 40.728V44.2891H82.0708V40.728H82.7113Z" fill="black"/>
<path d="M85.8945 40.728L87.4765 44.2891H86.7591L86.4645 43.6486H84.5815L84.2997 44.2891H83.6016L85.1835 40.728H85.8945ZM84.8377 43.0529H86.2083L85.5678 41.4518H85.5038L84.8377 43.0529Z" fill="black"/>
<path d="M87.688 40.728H90.9929V41.3173H89.6671V44.2891H89.0266V41.3173H87.7072L87.688 40.728ZM89.7375 44.8655C89.7405 44.929 89.7296 44.9924 89.7055 45.0512L89.4109 45.775L89.1034 45.6981L89.2059 45.2306C89.1251 45.2122 89.0539 45.165 89.0055 45.0978C88.9571 45.0305 88.935 44.9479 88.9433 44.8655C88.9423 44.814 88.952 44.7628 88.9719 44.7152C88.9918 44.6676 89.0213 44.6247 89.0587 44.5891C89.096 44.5536 89.1403 44.5262 89.1889 44.5087C89.2374 44.4912 89.289 44.4841 89.3404 44.4876C89.3923 44.4819 89.4448 44.4876 89.4943 44.5043C89.5437 44.521 89.5889 44.5483 89.6267 44.5843C89.6646 44.6203 89.694 44.6641 89.7132 44.7127C89.7323 44.7612 89.7406 44.8134 89.7375 44.8655Z" fill="black"/>
<path d="M92.5492 40.728V44.2891H91.9087V40.728H92.5492Z" fill="black"/>
<path d="M95.7388 40.728L97.3143 44.2891H96.597L96.3024 43.6486H94.4194L94.1376 44.2891H93.4395L95.0214 40.728H95.7388ZM94.6756 43.0529H96.0718L95.4313 41.4518H95.3673L94.6756 43.0529Z" fill="black"/>
<path d="M104.039 40.728V44.2891H103.399L101.317 41.7656V44.2891H100.677V40.728H101.317L103.405 43.2515V40.728H104.039Z" fill="black"/>
<path d="M107.223 40.728L108.805 44.2891H108.087L107.793 43.6486H105.91L105.628 44.2891H104.93L106.505 40.728H107.223ZM106.166 43.0529H107.536L106.896 41.4518H106.832L106.166 43.0529Z" fill="black"/>
<path d="M109.016 40.728H112.321V41.3173H111.001V44.2891H110.329V41.3173H109.048L109.016 40.728ZM111.065 44.8655C111.079 44.9267 111.079 44.99 111.065 45.0512L110.771 45.775L110.463 45.6981L110.566 45.2306C110.485 45.2123 110.413 45.1653 110.363 45.0983C110.314 45.0312 110.29 44.9486 110.297 44.8655C110.296 44.8134 110.306 44.7616 110.326 44.7135C110.346 44.6655 110.376 44.6222 110.414 44.5866C110.452 44.5509 110.497 44.5237 110.547 44.5066C110.596 44.4896 110.648 44.4831 110.7 44.4876C110.75 44.4867 110.799 44.4959 110.844 44.5147C110.89 44.5335 110.931 44.5616 110.965 44.597C110.999 44.6325 111.026 44.6746 111.043 44.7208C111.06 44.767 111.068 44.8163 111.065 44.8655Z" fill="black"/>
<path d="M113.877 40.728V44.2891H113.237V40.728H113.877Z" fill="black"/>
<path d="M118.021 43.8279C117.665 44.1706 117.189 44.3593 116.695 44.3531C116.2 44.3563 115.723 44.1681 115.363 43.8279C115.187 43.6571 115.046 43.4526 114.95 43.2265C114.855 43.0004 114.805 42.7573 114.805 42.5118C114.805 42.2662 114.855 42.0231 114.95 41.797C115.046 41.5709 115.187 41.3664 115.363 41.1956C115.719 40.849 116.198 40.6578 116.695 40.664C116.94 40.6603 117.184 40.7055 117.411 40.7967C117.639 40.888 117.846 41.0236 118.021 41.1956C118.199 41.3654 118.341 41.5697 118.438 41.7959C118.534 42.0221 118.584 42.2657 118.584 42.5118C118.584 42.7578 118.534 43.0014 118.438 43.2276C118.341 43.4538 118.199 43.6581 118.021 43.8279ZM115.818 43.4116C115.933 43.5271 116.069 43.6183 116.22 43.6799C116.371 43.7415 116.532 43.7722 116.695 43.7703C116.857 43.7721 117.018 43.7413 117.167 43.6797C117.317 43.618 117.453 43.5269 117.566 43.4116C117.685 43.2938 117.778 43.1528 117.84 42.9974C117.901 42.8421 117.93 42.6756 117.925 42.5086C117.929 42.1721 117.8 41.8477 117.566 41.6055C117.451 41.4922 117.315 41.4028 117.166 41.3424C117.016 41.2819 116.856 41.2516 116.695 41.2532C116.368 41.2497 116.052 41.3764 115.818 41.6055C115.587 41.8487 115.46 42.173 115.465 42.5086C115.46 42.675 115.489 42.8409 115.549 42.9961C115.61 43.1512 115.701 43.2926 115.818 43.4116Z" fill="black"/>
<path d="M122.85 40.728V44.2891H122.21L120.128 41.7656V44.2891H119.488V40.728H120.128L122.216 43.2515V40.728H122.85Z" fill="black"/>
<path d="M126.033 40.728L127.615 44.2891H126.898L126.603 43.6486H124.72L124.439 44.2891H123.74L125.316 40.728H126.033ZM124.977 43.0529H126.347L125.707 41.4518H125.643L124.977 43.0529Z" fill="black"/>
<path d="M131.298 43.7062V44.2891H128.486V40.728H129.127V43.7062H131.298Z" fill="black"/>
<path d="M134.328 40.728L135.903 44.2891H135.186L134.891 43.6486H133.008L132.726 44.2891H132.028L133.61 40.728H134.328ZM133.335 40.1772C133.188 40.0566 133.079 39.8966 133.021 39.7161L133.482 39.5175C133.516 39.6086 133.568 39.6916 133.636 39.7609C133.726 39.8359 133.839 39.877 133.956 39.877C134.073 39.877 134.187 39.8359 134.276 39.7609C134.344 39.6916 134.397 39.6086 134.43 39.5175L134.898 39.7161C134.837 39.9192 134.711 40.0961 134.537 40.2181C134.364 40.3401 134.155 40.4002 133.943 40.3886C133.722 40.3913 133.507 40.3165 133.335 40.1772ZM133.264 43.053H134.635L133.995 41.4518H133.931L133.264 43.053Z" fill="black"/>
<path d="M141.398 40.728L142.974 44.2891H142.257L141.968 43.6486H140.085L139.797 44.2891H139.105L140.681 40.728H141.398ZM140.342 43.0529H141.712L141.072 41.4518H141.008L140.342 43.0529Z" fill="black"/>
<path d="M149.231 42.7904C149.098 42.9612 148.927 43.0992 148.732 43.1939L149.372 44.2891H148.636L148.091 43.3284H147.003V44.2891H146.362V40.728H148.053C148.256 40.7193 148.459 40.7543 148.648 40.8305C148.837 40.9067 149.008 41.0224 149.148 41.1699C149.346 41.3897 149.462 41.6711 149.476 41.9664C149.49 42.2618 149.401 42.5529 149.225 42.7904H149.231ZM147.028 42.7455H148.034C148.145 42.7526 148.257 42.735 148.361 42.6941C148.465 42.6531 148.559 42.5898 148.636 42.5085C148.754 42.3774 148.816 42.2048 148.809 42.0282C148.81 41.8476 148.747 41.6724 148.629 41.535C148.552 41.4558 148.457 41.395 148.353 41.3573C148.249 41.3196 148.138 41.3059 148.027 41.3173H147.028V42.7455Z" fill="black"/>
<path d="M150.391 40.728H153.183V41.3237H151.05V42.1563H152.972V42.7455H151.05V43.7062H153.26V44.2891H150.391V40.728Z" fill="black"/>
<path d="M154.535 40.9906C154.881 40.7733 155.286 40.6682 155.694 40.6896C156.197 40.6906 156.694 40.8044 157.148 41.0226L156.904 41.5222C156.537 41.353 156.136 41.2698 155.732 41.2788C155.474 41.2547 155.215 41.3035 154.983 41.4197C154.94 41.4487 154.906 41.488 154.882 41.5338C154.859 41.5797 154.847 41.6308 154.848 41.6823C154.845 41.7285 154.854 41.7747 154.874 41.8163C154.894 41.8579 154.925 41.8935 154.964 41.9193C155.086 41.989 155.221 42.0347 155.361 42.0538L156.091 42.1883C156.414 42.2145 156.724 42.3274 156.988 42.515C157.096 42.6014 157.182 42.7119 157.24 42.8375C157.297 42.9631 157.325 43.1005 157.321 43.2387C157.324 43.3879 157.294 43.536 157.233 43.6723C157.172 43.8086 157.082 43.9295 156.968 44.0265C156.566 44.2941 156.086 44.4182 155.604 44.3787C155.092 44.3831 154.586 44.2622 154.131 44.0265L154.368 43.4885C154.752 43.6732 155.172 43.7737 155.598 43.7831C155.897 43.8108 156.197 43.7507 156.462 43.6102C156.523 43.5723 156.572 43.5193 156.606 43.4564C156.64 43.3935 156.657 43.3228 156.655 43.2515C156.655 43.196 156.642 43.1411 156.617 43.0919C156.591 43.0427 156.553 43.0007 156.507 42.9697C156.348 42.8847 156.174 42.8324 155.995 42.816L155.181 42.6623C154.88 42.6323 154.598 42.4961 154.387 42.278C154.24 42.113 154.164 41.8966 154.176 41.6759C154.176 41.5412 154.208 41.4085 154.271 41.2891C154.333 41.1697 154.424 41.0673 154.535 40.9906Z" fill="black"/>
<path d="M157.852 40.728H161.157V41.3173H159.831V44.2891H159.191V41.3173H157.91L157.852 40.728Z" fill="black"/>
<path d="M163.662 40.728L165.243 44.2891H164.526L164.232 43.6486H162.349L162.067 44.2891H161.401L162.976 40.728H163.662ZM162.605 43.0529H163.963L163.322 41.4518H163.258L162.605 43.0529Z" fill="black"/>
<path d="M168.574 43.9304C168.272 44.2058 167.878 44.3585 167.469 44.3585C167.06 44.3585 166.666 44.2058 166.364 43.9304C166.08 43.6287 165.922 43.2302 165.922 42.816V40.728H166.563V42.8224C166.562 43.061 166.654 43.2905 166.819 43.4629C166.902 43.5486 167.002 43.6167 167.112 43.6629C167.222 43.7092 167.34 43.7326 167.46 43.7319C167.699 43.7322 167.929 43.6378 168.1 43.4693C168.184 43.3782 168.25 43.2713 168.293 43.1548C168.336 43.0382 168.355 42.9144 168.35 42.7904V40.728H168.99V42.7904C169.003 42.9988 168.973 43.2076 168.901 43.4038C168.829 43.6 168.718 43.7792 168.574 43.9304Z" fill="black"/>
<path d="M172.987 42.7903C172.853 42.9612 172.682 43.0992 172.487 43.1939L173.128 44.2891H172.417L171.866 43.3284H170.784V44.2891H170.143V40.728H171.834C172.037 40.7186 172.239 40.7532 172.427 40.8295C172.615 40.9058 172.784 41.0219 172.923 41.1699C173.134 41.4058 173.25 41.7116 173.249 42.0282C173.246 42.3039 173.154 42.5712 172.987 42.7903ZM170.784 42.7455H171.789C171.9 42.7525 172.011 42.7349 172.114 42.6939C172.217 42.653 172.309 42.5896 172.385 42.5085C172.505 42.378 172.569 42.2056 172.564 42.0282C172.566 41.8463 172.5 41.6702 172.378 41.535C172.302 41.4563 172.209 41.3958 172.105 41.3581C172.002 41.3204 171.892 41.3064 171.783 41.3173H170.784V42.7455Z" fill="black"/>
<path d="M176.279 40.728L177.854 44.2891H177.137L176.842 43.6486H174.959L174.678 44.2891H173.979L175.561 40.728H176.279ZM175.216 43.0529H176.586L175.946 41.4518H175.882L175.216 43.0529Z" fill="black"/>
<path d="M182.088 40.728V44.2891H181.448L179.366 41.7656V44.2891H178.726V40.728H179.366L181.46 43.2515V40.728H182.088Z" fill="black"/>
<path d="M182.985 40.728H186.283V41.3173H184.964V44.2891H184.323V41.3173H182.985V40.728Z" fill="black"/>
<path d="M187.173 40.728H189.966V41.3237H187.839V42.1563H189.761V42.7455H187.839V43.7062H190.049V44.2891H187.173V40.728Z" fill="black"/>
<path d="M193.854 43.7062V44.2891H191.042V40.728H191.682V43.7062H193.854Z" fill="black"/>
<path d="M197.613 43.8279C197.253 44.1681 196.776 44.3563 196.281 44.3531C195.787 44.3593 195.311 44.1706 194.955 43.8279C194.777 43.6581 194.635 43.4538 194.539 43.2276C194.442 43.0014 194.392 42.7578 194.392 42.5118C194.392 42.2657 194.442 42.0221 194.539 41.7959C194.635 41.5697 194.777 41.3654 194.955 41.1956C195.13 41.0236 195.337 40.888 195.565 40.7967C195.792 40.7055 196.036 40.6603 196.281 40.664C196.778 40.6578 197.257 40.849 197.613 41.1956C197.79 41.3664 197.93 41.5709 198.026 41.797C198.122 42.0231 198.171 42.2662 198.171 42.5118C198.171 42.7573 198.122 43.0004 198.026 43.2265C197.93 43.4526 197.79 43.6571 197.613 43.8279ZM195.41 43.4116C195.524 43.5269 195.659 43.618 195.809 43.6797C195.959 43.7413 196.119 43.7721 196.281 43.7703C196.448 43.7723 196.613 43.7401 196.766 43.6758C196.92 43.6114 197.058 43.5163 197.173 43.3962C197.289 43.2762 197.378 43.1337 197.436 42.9777C197.494 42.8218 197.52 42.6555 197.511 42.4893C197.516 42.1538 197.39 41.8295 197.159 41.5863C196.922 41.3612 196.608 41.2352 196.281 41.234C196.12 41.2324 195.96 41.2627 195.81 41.3232C195.661 41.3836 195.525 41.473 195.41 41.5863C195.177 41.8285 195.048 42.1529 195.051 42.4893C195.043 42.6596 195.071 42.8297 195.133 42.9886C195.195 43.1475 195.289 43.2916 195.41 43.4116Z" fill="black"/>
<path d="M201.956 42.7904C201.822 42.9612 201.651 43.0992 201.456 43.1939L202.096 44.2891H201.36L200.815 43.3284H199.727V44.2891H199.086V40.728H200.777C200.981 40.7193 201.184 40.7543 201.372 40.8305C201.561 40.9067 201.732 41.0224 201.872 41.1699C202.07 41.3897 202.186 41.6711 202.2 41.9664C202.214 42.2618 202.125 42.5529 201.949 42.7904H201.956ZM199.752 42.7455H200.758C200.869 42.7526 200.981 42.735 201.085 42.6941C201.189 42.6531 201.283 42.5898 201.36 42.5085C201.476 42.3757 201.537 42.2043 201.533 42.0282C201.535 41.8463 201.469 41.6702 201.347 41.535C201.271 41.4551 201.178 41.3938 201.075 41.356C200.971 41.3182 200.861 41.305 200.751 41.3173H199.752V42.7455Z" fill="black"/>
<path d="M64.4641 48.7788C64.8137 48.5651 65.2208 48.4645 65.6297 48.4906C66.1319 48.4961 66.6273 48.6074 67.0836 48.8173L66.853 49.336C66.4771 49.1708 66.0723 49.0815 65.6618 49.0734C65.4058 49.0498 65.1483 49.0986 64.9188 49.2143C64.8765 49.2451 64.8422 49.2856 64.8188 49.3324C64.7953 49.3793 64.7835 49.431 64.7843 49.4834C64.78 49.5287 64.7885 49.5744 64.8089 49.6152C64.8293 49.6559 64.8607 49.6901 64.8996 49.7139C65.0206 49.786 65.1564 49.8298 65.2967 49.842L66.0268 49.9701C66.351 50.0041 66.6604 50.1235 66.9235 50.316C67.031 50.4024 67.1166 50.513 67.1734 50.6388C67.2301 50.7645 67.2564 50.9019 67.2501 51.0397C67.2551 51.1889 67.2253 51.3371 67.1631 51.4728C67.1008 51.6084 67.0078 51.7277 66.8915 51.8211C66.5624 52.0639 66.1599 52.186 65.7514 52.167V52.3527C65.8145 52.3504 65.8772 52.3625 65.9349 52.388C65.9926 52.4135 66.0437 52.4518 66.0845 52.5C66.1555 52.5812 66.1923 52.6868 66.1869 52.7946C66.1851 52.8877 66.1642 52.9795 66.1257 53.0643C66.0871 53.1491 66.0317 53.2251 65.9628 53.2878C65.781 53.45 65.5603 53.5625 65.3223 53.6144L65.207 53.3006C65.3417 53.2618 65.4663 53.1941 65.5721 53.1021C65.6085 53.0729 65.6378 53.0358 65.6578 52.9937C65.6778 52.9515 65.6879 52.9053 65.6874 52.8587C65.6867 52.8364 65.6812 52.8146 65.6712 52.7947C65.6613 52.7748 65.6471 52.7573 65.6297 52.7434C65.5895 52.718 65.5428 52.7047 65.4952 52.705H65.3287V52.167C64.896 52.148 64.4723 52.0366 64.0862 51.8403L64.2975 51.3023C64.7022 51.4775 65.1375 51.5711 65.5785 51.5777C65.8788 51.6075 66.1814 51.5496 66.4495 51.4112C66.5087 51.372 66.5573 51.3187 66.5908 51.2561C66.6244 51.1935 66.6418 51.1235 66.6417 51.0525C66.6425 50.9963 66.6288 50.9408 66.6018 50.8914C66.5749 50.8421 66.5357 50.8005 66.488 50.7707C66.3318 50.6786 66.1564 50.6238 65.9756 50.6106L65.1686 50.4633C64.8667 50.4333 64.5853 50.2971 64.3744 50.079C64.2995 49.9911 64.2428 49.8893 64.2076 49.7793C64.1724 49.6694 64.1595 49.5535 64.1694 49.4385C64.1629 49.3131 64.1862 49.1879 64.2374 49.0732C64.2886 48.9585 64.3663 48.8577 64.4641 48.7788Z" fill="black"/>
<path d="M68.8451 48.5547V52.1157H68.2046V48.5547H68.8451Z" fill="black"/>
<path d="M74.5134 48.5547L76.0953 52.1157H75.378L75.0834 51.4752H73.2004L72.9186 52.1157H72.2205L73.796 48.5547H74.5134ZM73.4566 50.8732H74.8272L74.1867 49.272H74.1227L73.4566 50.8732Z" fill="black"/>
<path d="M82.2822 51.5265V52.1157H79.4705V48.5547H80.1109V51.5265H82.2822Z" fill="black"/>
<path d="M86.0355 51.6482C85.6782 51.9888 85.2034 52.1789 84.7097 52.1789C84.216 52.1789 83.7413 51.9888 83.3839 51.6482C83.2092 51.4831 83.0693 51.2847 82.9725 51.0647C82.8757 50.8447 82.824 50.6076 82.8203 50.3672C82.8203 50.1206 82.8702 49.8766 82.9671 49.6498C83.0639 49.4231 83.2057 49.2183 83.3839 49.0478C83.7413 48.7072 84.216 48.5172 84.7097 48.5172C85.2034 48.5172 85.6782 48.7072 86.0355 49.0478C86.2137 49.2183 86.3555 49.4231 86.4524 49.6498C86.5493 49.8766 86.5992 50.1206 86.5991 50.3672C86.5955 50.6076 86.5437 50.8447 86.4469 51.0647C86.3501 51.2847 86.2102 51.4831 86.0355 51.6482ZM83.8387 51.2383C84.0878 51.3961 84.3838 51.463 84.6767 51.4279C84.9695 51.3927 85.2412 51.2576 85.446 51.0453C85.6507 50.8331 85.776 50.5566 85.8005 50.2627C85.8251 49.9688 85.7475 49.6754 85.5808 49.4321C85.3492 49.2021 85.0361 49.0731 84.7097 49.0731C84.3834 49.0731 84.0702 49.2021 83.8387 49.4321C83.609 49.6767 83.4812 49.9997 83.4812 50.3352C83.4812 50.6707 83.609 50.9937 83.8387 51.2383Z" fill="black"/>
<path d="M88.3861 51.2383C88.6278 51.4679 88.9494 51.5942 89.2828 51.5905C89.4764 51.5949 89.6689 51.5596 89.8484 51.4869C90.0279 51.4143 90.1907 51.3056 90.3268 51.1678L90.7239 51.6097C90.5363 51.8003 90.3117 51.9504 90.0638 52.0507C89.8159 52.1509 89.5501 52.1992 89.2828 52.1926C89.0335 52.1985 88.7855 52.1546 88.5534 52.0633C88.3213 51.972 88.1098 51.8352 87.9314 51.661C87.7578 51.488 87.6204 51.2823 87.5269 51.0559C87.4334 50.8294 87.3859 50.5866 87.387 50.3416C87.3877 50.1031 87.4355 49.8672 87.5279 49.6473C87.6202 49.4275 87.7552 49.2281 87.925 49.0606C88.1035 48.8839 88.3157 48.7447 88.5489 48.6512C88.7821 48.5577 89.0316 48.5118 89.2828 48.5162C89.5508 48.5039 89.8183 48.5496 90.067 48.6502C90.3157 48.7508 90.5398 48.9039 90.7239 49.0991L90.3204 49.541C90.192 49.3942 90.0318 49.2787 89.852 49.2032C89.6722 49.1277 89.4775 49.0943 89.2828 49.1055C89.1158 49.1016 88.9499 49.1324 88.7955 49.1961C88.6412 49.2598 88.5017 49.3549 88.3861 49.4754C88.2704 49.5958 88.1811 49.739 88.1238 49.8959C88.0665 50.0527 88.0424 50.2198 88.0531 50.3864C88.0555 50.7017 88.1741 51.005 88.3861 51.2383Z" fill="black"/>
<path d="M93.6891 48.5547L95.2647 52.1157H94.5474L94.2592 51.4752H92.3762L92.088 52.1157H91.3962L92.9718 48.5547H93.6891ZM92.6324 50.8732H94.003L93.3625 49.272H93.2985L92.6324 50.8732Z" fill="black"/>
<path d="M98.9731 51.5265V52.1157H96.155V48.5547H96.8275V51.5265H98.9731Z" fill="black"/>
<path d="M102.515 51.757C102.212 52.0298 101.818 52.1807 101.41 52.1807C101.002 52.1807 100.609 52.0298 100.305 51.757C100.02 51.4538 99.8617 51.0526 99.8633 50.6362V48.5547H100.504V50.649C100.502 50.7674 100.524 50.885 100.568 50.9949C100.612 51.1048 100.677 51.2049 100.76 51.2895C100.842 51.3765 100.941 51.4454 101.052 51.4917C101.162 51.538 101.281 51.5608 101.4 51.5585C101.519 51.5601 101.637 51.5376 101.747 51.4925C101.858 51.4474 101.957 51.3805 102.041 51.2959C102.204 51.1226 102.293 50.8931 102.291 50.6554V48.5547H102.931V50.5978C102.945 50.8093 102.916 51.0214 102.844 51.2209C102.773 51.4204 102.66 51.603 102.515 51.757Z" fill="black"/>
<path d="M106.96 50.5978C106.828 50.7723 106.657 50.9128 106.46 51.0077L107.101 52.1029H106.364L105.813 51.1422H104.731V52.1029H104.091V48.5547H105.781C105.984 48.5452 106.186 48.5798 106.374 48.6561C106.562 48.7324 106.732 48.8486 106.87 48.9966C107.084 49.2285 107.201 49.5332 107.197 49.8484C107.198 50.1169 107.115 50.379 106.96 50.5978ZM104.725 50.5978H105.73C105.842 50.6049 105.954 50.5873 106.058 50.5463C106.162 50.5054 106.255 50.442 106.332 50.3608C106.448 50.2257 106.51 50.0521 106.505 49.874C106.507 49.7742 106.487 49.6751 106.447 49.5834C106.408 49.4917 106.349 49.4095 106.275 49.3423C106.201 49.2751 106.114 49.2243 106.019 49.1934C105.924 49.1625 105.823 49.1522 105.724 49.1631H104.725V50.5978Z" fill="black"/>
<path d="M108.766 48.5547V52.1157H108.125V48.5547H108.766Z" fill="black"/>
<path d="M112.647 51.5265V52.1157H109.836V48.5547H110.476V51.5265H112.647Z" fill="black"/>
<path d="M116.401 51.6482C116.226 51.8202 116.019 51.9557 115.791 52.047C115.563 52.1383 115.32 52.1834 115.075 52.1798C114.578 52.186 114.099 51.9948 113.743 51.6482C113.57 51.4819 113.432 51.2831 113.336 51.0633C113.24 50.8435 113.189 50.6069 113.185 50.3672C113.186 50.1213 113.235 49.8778 113.331 49.6512C113.426 49.4247 113.566 49.2195 113.743 49.0478C114.102 48.7077 114.58 48.5195 115.075 48.5226C115.569 48.5164 116.045 48.7051 116.401 49.0478C116.579 49.2183 116.721 49.4231 116.817 49.6498C116.914 49.8766 116.964 50.1206 116.964 50.3672C116.96 50.6075 116.909 50.8447 116.812 51.0647C116.715 51.2847 116.575 51.4831 116.401 51.6482ZM114.197 51.2383C114.431 51.4691 114.746 51.598 115.075 51.5969C115.319 51.5829 115.554 51.4992 115.753 51.3557C115.951 51.2122 116.104 51.0149 116.193 50.7871C116.283 50.5594 116.305 50.3107 116.258 50.0706C116.211 49.8304 116.096 49.6089 115.927 49.4321C115.813 49.3169 115.677 49.2257 115.528 49.1641C115.378 49.1024 115.217 49.0716 115.055 49.0735C114.893 49.0715 114.731 49.1022 114.58 49.1638C114.43 49.2254 114.293 49.3167 114.178 49.4321C113.951 49.6781 113.825 50.0005 113.825 50.3352C113.825 50.6698 113.951 50.9922 114.178 51.2383H114.197Z" fill="black"/>
<path d="M120.743 50.5978C120.616 50.774 120.446 50.9151 120.25 51.0077L120.89 52.1029H120.154L119.603 51.1422H118.514V52.1029H117.874V48.5547H119.564C119.768 48.5455 119.971 48.5803 120.16 48.6565C120.349 48.7328 120.519 48.8488 120.66 48.9966C120.869 49.2308 120.986 49.534 120.986 49.8484C120.99 50.1182 120.904 50.3817 120.743 50.5978ZM118.54 50.5978H119.552C119.662 50.6044 119.773 50.5865 119.876 50.5456C119.979 50.5046 120.071 50.4416 120.147 50.3608C120.268 50.228 120.332 50.0534 120.327 49.8741C120.328 49.7742 120.308 49.6751 120.269 49.5834C120.229 49.4917 120.17 49.4095 120.096 49.3423C120.022 49.2751 119.935 49.2243 119.84 49.1934C119.745 49.1625 119.644 49.1522 119.545 49.1631H118.54V50.5978Z" fill="black"/>
<path d="M125.828 48.5547C126.081 48.5427 126.333 48.5819 126.569 48.67C126.806 48.758 127.022 48.8931 127.205 49.067C127.537 49.4109 127.723 49.8701 127.723 50.348C127.723 50.8259 127.537 51.2851 127.205 51.629C126.832 51.9754 126.337 52.1597 125.828 52.1413H124.406V48.5547H125.828ZM125.066 49.1439V51.5265H125.803C125.966 51.5436 126.13 51.5249 126.285 51.4718C126.44 51.4187 126.582 51.3325 126.7 51.2191C126.819 51.1057 126.911 50.9678 126.97 50.8152C127.03 50.6625 127.055 50.4987 127.045 50.3352C127.051 50.179 127.026 50.0232 126.971 49.8769C126.916 49.7306 126.832 49.5968 126.725 49.4834C126.604 49.3648 126.459 49.2732 126.3 49.2147C126.141 49.1562 125.972 49.132 125.803 49.1439H125.066Z" fill="black"/>
<path d="M128.672 48.5547H131.465V49.1439H129.332V49.9573H131.253V50.5978H129.332V51.5521H131.541V52.1413H128.672V48.5547Z" fill="black"/>
<path d="M137.146 48.5547L138.721 52.1157H138.004L137.716 51.4752H135.833L135.551 52.1157H134.853L136.422 48.5547H137.146ZM136.089 50.8732H137.46L136.819 49.272H136.755L136.089 50.8732Z" fill="black"/>
<path d="M142.564 52.0581L142.18 52.1413L142.058 51.8851C141.776 52.0856 141.437 52.189 141.091 52.1798C140.845 52.1896 140.599 52.1485 140.369 52.0591C140.14 51.9698 139.931 51.834 139.756 51.6603C139.581 51.4866 139.444 51.2787 139.353 51.0496C139.262 50.8205 139.219 50.5751 139.227 50.3288C139.225 49.8502 139.411 49.3899 139.746 49.0478C139.926 48.872 140.14 48.7343 140.374 48.643C140.608 48.5516 140.859 48.5085 141.11 48.5162C141.384 48.5085 141.656 48.5568 141.911 48.6582C142.165 48.7595 142.396 48.9117 142.59 49.1055L142.173 49.5602C142.036 49.4177 141.871 49.305 141.688 49.229C141.505 49.153 141.308 49.1153 141.11 49.1183C140.951 49.1122 140.791 49.1392 140.642 49.1976C140.494 49.256 140.359 49.3446 140.246 49.4577C140.13 49.5762 140.04 49.7166 139.979 49.8705C139.919 50.0245 139.889 50.189 139.893 50.3544C139.898 50.686 140.031 51.0028 140.265 51.2383C140.38 51.3495 140.517 51.4363 140.666 51.4936C140.816 51.5508 140.976 51.5772 141.136 51.5713C141.419 51.577 141.697 51.4942 141.93 51.3343V50.5978H141.027V50.0534H142.583L142.564 52.0581Z" fill="black"/>
<path d="M146.522 50.5978C146.393 50.7722 146.224 50.9128 146.029 51.0077L146.669 52.1029H145.927L145.382 51.1422H144.293V52.1029H143.653V48.5547H145.344C145.547 48.5455 145.75 48.5803 145.939 48.6565C146.128 48.7328 146.299 48.8488 146.439 48.9966C146.649 49.2308 146.765 49.534 146.766 49.8484C146.769 50.1182 146.684 50.3817 146.522 50.5978ZM144.319 50.5978H145.331C145.441 50.6044 145.552 50.5865 145.655 50.5456C145.758 50.5046 145.851 50.4416 145.927 50.3608C146.047 50.228 146.111 50.0534 146.106 49.8741C146.107 49.7742 146.088 49.6751 146.048 49.5834C146.008 49.4917 145.949 49.4095 145.876 49.3423C145.802 49.2751 145.714 49.2243 145.619 49.1934C145.524 49.1625 145.424 49.1522 145.324 49.1631H144.319V50.5978Z" fill="black"/>
<path d="M147.701 48.5547H150.512V49.1439H148.38V49.9573H150.301V50.5978H148.38V51.5521H150.589V52.1413H147.72L147.701 48.5547Z" fill="black"/>
<path d="M152.267 48.5547L153.503 50.3416L154.733 48.5547H155.438V52.1157H154.797V49.5538L153.619 51.2383H153.363L152.229 49.5858H152.197V52.1477H151.556V48.5547H152.267Z" fill="black"/>
<path d="M156.507 48.5547H159.3V49.1439H157.167V49.9573H159.088V50.5978H157.167V51.5521H159.377V52.1413H156.507V48.5547Z" fill="black"/>
<path d="M163.719 48.5547V52.1157H163.078L160.997 49.5538V52.1157H160.356V48.5547H160.997L163.085 51.0717V48.5547H163.719Z" fill="black"/>
<path d="M164.603 48.5547H167.908V49.1375H166.589V52.1157H165.916V49.1375H164.603V48.5547Z" fill="black"/>
<path d="M65.6169 56.3621C65.8692 56.3501 66.1212 56.3893 66.3579 56.4774C66.5945 56.5655 66.8109 56.7005 66.9939 56.8745C67.3288 57.2168 67.5163 57.6766 67.5163 58.1554C67.5163 58.6343 67.3288 59.0941 66.9939 59.4364C66.6209 59.7829 66.1257 59.9671 65.6169 59.9488H64.1951V56.3621H65.6169ZM64.8548 56.9513V59.3339H65.5849C65.7487 59.3523 65.9145 59.3343 66.0705 59.2812C66.2265 59.2282 66.3689 59.1414 66.4876 59.027C66.6062 58.9127 66.6982 58.7735 66.7569 58.6196C66.8157 58.4656 66.8397 58.3005 66.8274 58.1362C66.8339 57.98 66.8089 57.8241 66.7539 57.6778C66.6989 57.5314 66.615 57.3976 66.5072 57.2844C66.381 57.1767 66.234 57.0961 66.0753 57.0477C65.9167 56.9992 65.7497 56.9838 65.5849 57.0026L64.8548 56.9513Z" fill="black"/>
<path d="M69.1268 56.3621V59.9167H68.4863V56.3621H69.1268Z" fill="black"/>
<path d="M73.5398 56.3621V59.9167H72.8993L70.8177 57.3933V59.9167H70.1772V56.3621H70.8177L72.8993 58.924V56.3621H73.5398Z" fill="black"/>
<path d="M80.4954 58.1362C80.3259 58.3478 80.1055 58.513 79.8549 58.6166L80.6619 59.936H79.919L79.2145 58.7511H77.7734V59.936H77.0945V55.6704H79.112C79.3354 55.6601 79.5587 55.6945 79.7687 55.7715C79.9788 55.8485 80.1714 55.9665 80.3353 56.1187C80.4824 56.2615 80.5987 56.4329 80.6769 56.6224C80.7551 56.8119 80.7936 57.0154 80.79 57.2203C80.7942 57.5496 80.6908 57.8712 80.4954 58.1362ZM77.767 58.1362H79.1376C79.2647 58.1471 79.3926 58.131 79.513 58.0889C79.6334 58.0468 79.7436 57.9797 79.8361 57.8919C79.9287 57.8042 80.0017 57.6978 80.0502 57.5799C80.0987 57.4619 80.1216 57.335 80.1175 57.2075C80.1286 56.9719 80.0456 56.7416 79.887 56.567C79.7853 56.458 79.6609 56.3727 79.5225 56.3174C79.3841 56.262 79.2352 56.2379 79.0864 56.2468H77.767V58.1362Z" fill="black"/>
<path d="M81.7122 56.3621H84.5046V57.0026H82.3718V57.8352H84.2933V58.4244H82.3718V59.3851H84.5815V59.968H81.7122V56.3621Z" fill="black"/>
<path d="M88.3091 58.5589C88.1697 58.6954 88.0043 58.8025 87.8228 58.874C87.6413 58.9455 87.4473 58.98 87.2523 58.9752H86.2403V59.936H85.5999V56.3621H87.2715C87.4618 56.3555 87.6515 56.3879 87.8288 56.4573C88.0061 56.5266 88.1674 56.6316 88.3027 56.7656C88.4219 56.8823 88.5163 57.0218 88.5801 57.1759C88.6439 57.33 88.6759 57.4955 88.6742 57.6623C88.6744 57.9974 88.5434 58.3193 88.3091 58.5589ZM87.8095 58.181C87.9322 58.0439 87.9985 57.8655 87.9952 57.6815C87.9991 57.5055 87.9374 57.3343 87.8223 57.2011C87.7493 57.1203 87.6589 57.057 87.558 57.016C87.4571 56.975 87.3482 56.9572 87.2395 56.9641H86.2403V58.3924H87.2907C87.3876 58.3988 87.4846 58.3831 87.5744 58.3465C87.6643 58.3098 87.7447 58.2533 87.8095 58.181Z" fill="black"/>
<path d="M92.229 59.5645C91.9263 59.8386 91.5325 59.9904 91.1242 59.9904C90.7158 59.9904 90.3221 59.8386 90.0194 59.5645C89.7333 59.2642 89.5749 58.8647 89.5774 58.45V56.3621H90.2179V58.45C90.2159 58.6889 90.3079 58.919 90.4741 59.0905C90.5562 59.1775 90.6556 59.2464 90.7659 59.2927C90.8762 59.339 90.995 59.3618 91.1146 59.3595C91.3543 59.3598 91.5845 59.2655 91.755 59.0969C91.8394 59.0058 91.9049 58.8989 91.9477 58.7824C91.9906 58.6659 92.01 58.5421 92.0048 58.418V56.3621H92.6453V58.418C92.6574 58.6274 92.6268 58.837 92.5552 59.0341C92.4836 59.2312 92.3726 59.4117 92.229 59.5645Z" fill="black"/>
<path d="M93.7852 59.936V56.3621H95.5529C95.7175 56.348 95.8833 56.3693 96.0391 56.4245C96.1948 56.4798 96.337 56.5677 96.456 56.6823C96.614 56.8576 96.6988 57.0869 96.6929 57.3228C96.6931 57.4548 96.66 57.5848 96.5969 57.7007C96.5385 57.7941 96.4597 57.8729 96.3663 57.9313C96.5138 58.012 96.6342 58.1345 96.7121 58.2835C96.8142 58.4463 96.8655 58.6359 96.8595 58.8279C96.8644 58.9755 96.8372 59.1225 96.7796 59.2585C96.7221 59.3945 96.6357 59.5164 96.5264 59.6157C96.2648 59.8327 95.9307 59.9425 95.5913 59.9231L93.7852 59.936ZM95.918 57.0794C95.8627 57.0305 95.7973 56.9942 95.7265 56.9732C95.6557 56.9521 95.5811 56.9469 95.508 56.9577H94.4449V57.7711H95.5849C95.6496 57.7804 95.7157 57.7736 95.7771 57.7513C95.8386 57.7289 95.8935 57.6917 95.9372 57.643C96.0019 57.5661 96.0361 57.4681 96.0332 57.3676C96.0368 57.314 96.0283 57.2603 96.0084 57.2104C95.9884 57.1605 95.9575 57.1158 95.918 57.0794ZM96.1101 58.5077C96.0522 58.445 95.9801 58.3971 95.8999 58.3681C95.8196 58.3391 95.7335 58.3299 95.649 58.3412H94.4449V59.3659H95.6297C95.7142 59.3778 95.8003 59.3701 95.8814 59.3435C95.9625 59.3168 96.0363 59.2719 96.0973 59.2122C96.1796 59.1133 96.2247 58.9886 96.2247 58.86C96.2247 58.7313 96.1796 58.6066 96.0973 58.5077H96.1101Z" fill="black"/>
<path d="M100.696 59.3531V59.936H97.8843V56.3621H98.5248V59.3339L100.696 59.3531Z" fill="black"/>
<path d="M102.259 56.3621V59.9167H101.618V56.3621H102.259Z" fill="black"/>
<path d="M104.219 59.0457C104.336 59.1638 104.475 59.2566 104.63 59.3183C104.784 59.38 104.949 59.4093 105.115 59.4044C105.31 59.4087 105.503 59.3728 105.682 59.2989C105.862 59.2251 106.024 59.1149 106.159 58.9752L106.556 59.4172C106.368 59.6072 106.144 59.7568 105.896 59.857C105.648 59.9573 105.383 60.0059 105.115 60C104.866 60.0113 104.617 59.9717 104.383 59.8836C104.15 59.7955 103.937 59.6608 103.757 59.4876C103.577 59.3144 103.434 59.1063 103.338 58.8762C103.241 58.6461 103.192 58.3987 103.194 58.149C103.196 57.9102 103.245 57.674 103.338 57.4542C103.432 57.2344 103.568 57.0352 103.738 56.8681C104.102 56.517 104.59 56.3237 105.096 56.3301C105.364 56.3169 105.632 56.3622 105.881 56.4629C106.13 56.5635 106.354 56.7171 106.537 56.9129L106.134 57.3548C106.005 57.208 105.845 57.0925 105.665 57.017C105.485 56.9416 105.291 56.9081 105.096 56.9193C104.932 56.9129 104.768 56.9407 104.615 57.0011C104.462 57.0614 104.323 57.1529 104.208 57.2698C104.092 57.3867 104.002 57.5263 103.943 57.6799C103.884 57.8335 103.858 57.9976 103.866 58.1618C103.866 58.4908 103.992 58.8072 104.219 59.0457Z" fill="black"/>
<path d="M109.522 56.3621L111.104 59.9167H110.354L110.06 59.2763H108.177L107.895 59.9167H107.197L108.772 56.3621H109.522ZM108.465 58.6806H109.836L109.195 57.0794H109.131L108.465 58.6806Z" fill="black"/>
<path d="M115.209 55.6704L116.778 57.8736L118.322 55.6704H119.065V59.936H118.424V56.6247H118.392L116.881 58.7639H116.657L115.126 56.6247H115.094V59.936H114.453V55.6704H115.209Z" fill="black"/>
<path d="M123.215 59.4748C122.856 59.815 122.378 60.0031 121.883 60C121.389 60.0062 120.913 59.8175 120.557 59.4748C120.379 59.305 120.238 59.1007 120.141 58.8745C120.044 58.6483 119.994 58.4047 119.994 58.1586C119.994 57.9125 120.044 57.669 120.141 57.4428C120.238 57.2165 120.379 57.0123 120.557 56.8424C120.913 56.4998 121.389 56.311 121.883 56.3173C122.378 56.3141 122.856 56.5023 123.215 56.8424C123.392 57.0132 123.532 57.2178 123.628 57.4439C123.724 57.67 123.773 57.9131 123.773 58.1586C123.773 58.4042 123.724 58.6473 123.628 58.8734C123.532 59.0995 123.392 59.304 123.215 59.4748ZM121.012 59.0649C121.127 59.1781 121.263 59.2675 121.412 59.328C121.562 59.3885 121.722 59.4188 121.883 59.4172C122.211 59.4207 122.526 59.294 122.761 59.0649C122.987 58.8171 123.112 58.4939 123.112 58.1586C123.112 57.8233 122.987 57.5001 122.761 57.2524C122.526 57.0233 122.211 56.8966 121.883 56.9001C121.722 56.8985 121.562 56.9288 121.412 56.9893C121.263 57.0497 121.127 57.1391 121.012 57.2524C120.782 57.498 120.654 57.822 120.654 58.1586C120.654 58.4952 120.782 58.8192 121.012 59.0649Z" fill="black"/>
<path d="M127.507 59.3531V59.936H124.695V56.3621H125.335V59.3339L127.507 59.3531Z" fill="black"/>
<path d="M129.819 56.3621C130.071 56.3501 130.323 56.3893 130.56 56.4774C130.796 56.5655 131.013 56.7005 131.196 56.8745C131.53 57.2168 131.718 57.6766 131.718 58.1554C131.718 58.6343 131.53 59.0941 131.196 59.4364C130.823 59.7829 130.327 59.9671 129.819 59.9488H128.397V56.3621H129.819ZM129.056 57.0026V59.3851H129.787C130.026 59.3904 130.262 59.3251 130.465 59.1975C130.668 59.0698 130.829 58.8854 130.928 58.667C131.027 58.4487 131.059 58.2061 131.021 57.9694C130.984 57.7327 130.877 57.5123 130.715 57.3356C130.592 57.2187 130.446 57.1287 130.286 57.0713C130.126 57.014 129.956 56.9906 129.787 57.0026H129.056Z" fill="black"/>
<path d="M135.737 59.4748C135.381 59.8175 134.905 60.0062 134.411 60C133.916 60.0031 133.438 59.815 133.079 59.4748C132.902 59.304 132.762 59.0995 132.666 58.8734C132.57 58.6473 132.521 58.4042 132.521 58.1586C132.521 57.9131 132.57 57.67 132.666 57.4439C132.762 57.2178 132.902 57.0132 133.079 56.8424C133.438 56.5023 133.916 56.3141 134.411 56.3173C134.905 56.311 135.381 56.4998 135.737 56.8424C135.915 57.0123 136.056 57.2165 136.153 57.4428C136.25 57.669 136.3 57.9125 136.3 58.1586C136.3 58.4047 136.25 58.6483 136.153 58.8745C136.056 59.1007 135.915 59.305 135.737 59.4748ZM133.533 59.0649C133.77 59.2899 134.084 59.4159 134.411 59.4172C134.572 59.4188 134.732 59.3885 134.881 59.328C135.031 59.2675 135.167 59.1781 135.282 59.0649C135.512 58.8192 135.64 58.4952 135.64 58.1586C135.64 57.822 135.512 57.498 135.282 57.2524C135.167 57.1391 135.031 57.0497 134.881 56.9893C134.732 56.9288 134.572 56.8985 134.411 56.9001C134.084 56.9013 133.77 57.0273 133.533 57.2524C133.307 57.5001 133.182 57.8233 133.182 58.1586C133.182 58.4939 133.307 58.8171 133.533 59.0649Z" fill="black"/>
<path d="M138.164 59.936L136.685 56.3621H137.408L138.529 59.2378H138.6L139.708 56.3621H140.425L138.939 59.9167L138.164 59.936Z" fill="black"/>
<path d="M142.936 56.3621L144.511 59.9167H143.794L143.506 59.2763H141.623L141.334 59.9167H140.636L142.218 56.3621H142.936ZM141.879 58.6806H143.249L142.609 57.0794H142.545L141.879 58.6806Z" fill="black"/>
<path fill-rule="evenodd" clip-rule="evenodd" d="M109.522 2.27935e-06H106.71C106.607 2.27935e-06 106.505 0.0295273 106.418 0.085114C106.331 0.140701 106.261 0.220044 106.217 0.313837L104.052 4.91887C104.015 5.00206 103.999 5.09336 104.005 5.18438C104.012 5.2754 104.042 5.36321 104.092 5.43975C104.142 5.51628 104.21 5.57908 104.29 5.62237C104.371 5.66565 104.461 5.68803 104.552 5.68745H107.357C107.462 5.68868 107.564 5.65973 107.653 5.60407C107.742 5.54841 107.812 5.4684 107.857 5.37361L110.034 0.768576C110.074 0.684534 110.092 0.591551 110.085 0.498714C110.078 0.405876 110.048 0.316361 109.996 0.238916C109.945 0.161471 109.874 0.0987452 109.791 0.0568692C109.707 0.0149931 109.615 -0.00460082 109.522 2.27935e-06Z" fill="#EB2929"/>
<path fill-rule="evenodd" clip-rule="evenodd" d="M105.218 12.0858C105.185 12.0157 105.168 11.9392 105.168 11.8617C105.168 11.7841 105.185 11.7076 105.218 11.6375L106.96 7.85226C106.999 7.7693 107.016 7.67789 107.01 7.5865C107.004 7.4951 106.975 7.40668 106.926 7.32941C106.877 7.25215 106.809 7.18853 106.729 7.14446C106.648 7.10039 106.558 7.07729 106.467 7.07729H103.694C103.59 7.07729 103.489 7.10681 103.401 7.1624C103.314 7.21798 103.244 7.29733 103.2 7.39112L91.7742 31.9727C91.7352 32.0561 91.718 32.1481 91.7242 32.24C91.7304 32.332 91.7599 32.4208 91.8098 32.4982C91.8597 32.5757 91.9284 32.6392 92.0096 32.6828C92.0908 32.7264 92.1817 32.7487 92.2738 32.7477H95.0663C95.1695 32.7461 95.2702 32.716 95.3573 32.6606C95.4444 32.6052 95.5144 32.5267 95.5594 32.4338L97.8011 27.6366C97.845 27.5428 97.9146 27.4635 98.002 27.4079C98.0893 27.3523 98.1907 27.3228 98.2943 27.3228H107.6C107.706 27.3213 107.81 27.3509 107.898 27.4078C107.987 27.4648 108.057 27.5466 108.1 27.643L110.214 32.421C110.255 32.5177 110.324 32.6001 110.411 32.6582C110.499 32.7162 110.602 32.7473 110.707 32.7477H113.461C113.551 32.7466 113.641 32.7232 113.72 32.6795C113.799 32.6358 113.867 32.5731 113.916 32.4971C113.966 32.421 113.996 32.334 114.003 32.2436C114.011 32.1532 113.996 32.0624 113.96 31.9791L105.218 12.0858ZM105.512 23.6977H100.478C100.387 23.6977 100.297 23.6746 100.216 23.6305C100.136 23.5864 100.068 23.5228 100.019 23.4456C99.9698 23.3683 99.941 23.2799 99.935 23.1885C99.9291 23.0971 99.9463 23.0057 99.9851 22.9227L102.547 17.3698C102.59 17.2742 102.66 17.1931 102.748 17.1361C102.836 17.0792 102.939 17.049 103.043 17.049C103.148 17.049 103.251 17.0792 103.339 17.1361C103.427 17.1931 103.497 17.2742 103.54 17.3698L105.993 22.9291C106.032 23.0107 106.049 23.1007 106.044 23.1908C106.039 23.2809 106.011 23.3683 105.963 23.4449C105.915 23.5214 105.849 23.5847 105.77 23.6289C105.691 23.6731 105.603 23.6967 105.512 23.6977ZM86.8361 8.51836L76.4668 23.3582C76.4165 23.4296 76.3499 23.4878 76.2724 23.528C76.1949 23.5682 76.1089 23.5892 76.0216 23.5892C75.9344 23.5892 75.8484 23.5682 75.7709 23.528C75.6934 23.4878 75.6268 23.4296 75.5765 23.3582L65.0919 8.53758C65.0258 8.44157 64.9306 8.36933 64.8203 8.33147C64.7101 8.29361 64.5906 8.29215 64.4794 8.32728C64.3683 8.36242 64.2713 8.43231 64.2029 8.52666C64.1344 8.62101 64.0981 8.73484 64.0991 8.85141V32.1968C64.1008 32.3424 64.1594 32.4815 64.2623 32.5845C64.3653 32.6874 64.5044 32.746 64.65 32.7477H67.1094C67.2544 32.746 67.3928 32.6872 67.4947 32.5841C67.5967 32.481 67.6538 32.3418 67.6538 32.1968V20.0662C67.6533 19.9508 67.6895 19.8382 67.7571 19.7448C67.8248 19.6513 67.9203 19.5817 68.0301 19.5461C68.1398 19.5104 68.2581 19.5106 68.3677 19.5465C68.4774 19.5824 68.5728 19.6523 68.6401 19.7459L75.5765 29.5581C75.6268 29.6294 75.6934 29.6877 75.7709 29.7279C75.8484 29.7681 75.9344 29.7891 76.0216 29.7891C76.1089 29.7891 76.1949 29.7681 76.2724 29.7279C76.3499 29.6877 76.4165 29.6294 76.4668 29.5581L83.2622 19.8548C83.3284 19.7588 83.4236 19.6866 83.5338 19.6487C83.6441 19.6109 83.7636 19.6094 83.8747 19.6445C83.9859 19.6797 84.0828 19.7496 84.1512 19.8439C84.2197 19.9383 84.2561 20.0521 84.255 20.1687V32.1968C84.255 32.3418 84.3121 32.481 84.414 32.5841C84.516 32.6872 84.6544 32.746 84.7994 32.7477H87.2588C87.4038 32.746 87.5423 32.6872 87.6442 32.5841C87.7461 32.481 87.8032 32.3418 87.8032 32.1968V8.8386C87.7975 8.72858 87.7585 8.62289 87.6915 8.53549C87.6244 8.44809 87.5324 8.3831 87.4276 8.34909C87.3228 8.31509 87.2102 8.31367 87.1046 8.34504C86.999 8.37641 86.9054 8.43908 86.8361 8.52477V8.51836ZM137.287 31.8446L129.524 22.4167C130.38 22.3085 131.214 22.0687 131.996 21.7058C133.295 21.1409 134.418 20.2386 135.25 19.0927C136.019 18.0813 136.496 16.878 136.628 15.6141C136.76 14.3502 136.543 13.0743 135.999 11.9257C135.555 10.9797 134.923 10.1341 134.142 9.44065C133.315 8.67892 132.35 8.08315 131.298 7.68574C130.187 7.28573 129.014 7.08622 127.833 7.0965H119.129C118.985 7.0965 118.846 7.15386 118.744 7.25595C118.642 7.35805 118.585 7.49652 118.585 7.64091V32.1968C118.585 32.3412 118.642 32.4797 118.744 32.5818C118.846 32.6839 118.985 32.7412 119.129 32.7412H121.96C122.104 32.7412 122.243 32.6839 122.345 32.5818C122.447 32.4797 122.504 32.3412 122.504 32.1968V21.5841C122.504 21.4714 122.538 21.3613 122.603 21.2689C122.668 21.1766 122.759 21.1067 122.865 21.0687C122.972 21.0307 123.087 21.0267 123.195 21.057C123.304 21.0874 123.4 21.1507 123.471 21.2383L132.707 32.5427C132.758 32.6051 132.823 32.6553 132.896 32.6896C132.969 32.7239 133.049 32.7416 133.13 32.7412H136.864C136.967 32.7417 137.069 32.7127 137.156 32.6576C137.244 32.6026 137.314 32.5237 137.358 32.4304C137.402 32.337 137.419 32.2329 137.406 32.1303C137.394 32.0277 137.352 31.9308 137.287 31.851V31.8446ZM123.023 18.6507C122.879 18.6507 122.74 18.5934 122.638 18.4913C122.536 18.3892 122.479 18.2507 122.479 18.1063V11.5927C122.479 11.4483 122.536 11.3098 122.638 11.2077C122.74 11.1056 122.879 11.0483 123.023 11.0483H127.814C128.743 11.0268 129.663 11.2288 130.498 11.6375C131.183 11.9676 131.772 12.4682 132.208 13.0914C132.562 13.6034 132.754 14.2106 132.758 14.8335C132.761 15.5052 132.535 16.1578 132.118 16.6845C131.691 17.267 131.131 17.7391 130.485 18.0615C129.253 18.4993 127.949 18.6993 126.642 18.6507H123.023Z" fill="black"/>
<path fill-rule="evenodd" clip-rule="evenodd" d="M38.512 7.68574C35.135 7.66712 31.7783 8.20817 28.5782 9.28693C28.2881 9.38949 27.9716 9.38949 27.6815 9.28693C24.4816 8.2076 21.1247 7.66652 17.7477 7.68574C11.5287 7.78181 -0.166474 11.1379 5.04196e-05 23.2045C0.179384 35.9436 5.52738 48.7404 13.9625 56.6055L14.0137 56.6439C15.4207 57.6116 16.9555 58.379 18.5739 58.924C20.1251 59.4753 21.757 59.7653 23.4031 59.7822C24.852 59.7892 26.2889 59.5197 27.6367 58.988C27.9694 58.8534 28.3415 58.8534 28.6743 58.988C30.0224 59.5186 31.4591 59.7881 32.9078 59.7822C34.5454 59.763 36.1685 59.4731 37.7114 58.924C39.3313 58.3825 40.8665 57.6149 42.2716 56.6439L42.3228 56.6055C50.7323 48.7404 56.0867 35.9436 56.2597 23.2045C56.4262 11.1379 44.7246 7.78181 38.512 7.68574ZM41.6311 55.664C41.5786 55.7143 41.523 55.7614 41.4646 55.8049C40.5359 56.4453 34.2784 60.4739 28.4501 57.6687C28.3701 57.6152 28.2772 57.5843 28.1811 57.579H28.0914C27.9979 57.5873 27.9079 57.6181 27.8288 57.6687C22.0069 60.4739 15.743 56.4389 14.8207 55.8049C14.7591 55.763 14.7012 55.7159 14.6478 55.664C6.4945 47.9782 1.32584 35.5722 1.15291 23.1917C1.08246 18.2216 3.1448 14.3915 7.26948 11.8232C10.4588 9.94846 14.0747 8.92099 17.7733 8.8386C21.2177 8.82973 24.6374 9.41919 27.8801 10.5807C27.9296 10.6093 27.9838 10.6288 28.0402 10.6383H28.2323C28.29 10.6259 28.3459 10.6066 28.3989 10.5807C31.639 9.41828 35.0568 8.82878 38.4992 8.8386C42.1957 8.92123 45.8096 9.94872 48.9966 11.8232C53.1277 14.3851 55.1837 18.228 55.1132 23.1917C54.9467 35.5722 49.778 47.9974 41.6311 55.664ZM37.2759 10.6768C34.3221 10.6597 31.3857 11.1293 28.5846 12.0666C28.2935 12.1629 27.9791 12.1629 27.6879 12.0666C24.8904 11.1235 21.9551 10.6538 19.003 10.6768C13.5141 10.7536 3.17682 13.719 3.32413 24.3894C3.48425 35.6106 8.19817 46.8894 15.6341 53.8514L15.679 53.8898C16.9152 54.7486 18.2645 55.4319 19.6883 55.9201C21.06 56.4101 22.5039 56.6677 23.9603 56.6823C25.2105 56.696 26.4525 56.4788 27.6239 56.0418C27.9557 55.914 28.3232 55.914 28.655 56.0418C29.8263 56.4794 31.0684 56.6965 32.3186 56.6823C33.775 56.6671 35.2187 56.4095 36.5906 55.9201C38.0136 55.4347 39.3612 54.7512 40.5936 53.8898L40.6448 53.8514C48.0807 46.9214 52.8139 35.6426 52.9484 24.4214C53.0829 13.719 42.752 10.7536 37.2631 10.6768H37.2759ZM39.9659 52.8971C39.9149 52.9473 39.8591 52.9923 39.7994 53.0316C38.9347 53.6208 33.4971 57.0986 28.4245 54.6584C28.373 54.6277 28.3167 54.6061 28.2579 54.5944C28.2282 54.5907 28.1981 54.5907 28.1683 54.5944H28.0786H27.9889C27.9319 54.605 27.8775 54.6267 27.8288 54.6584C22.7626 57.0922 17.293 53.6208 16.4539 53.0316C16.3933 52.9908 16.3355 52.9459 16.281 52.8971C9.12686 46.1593 4.59228 35.2263 4.43856 24.3702C4.30406 14.5965 13.9048 11.8745 19.003 11.804C22.0264 11.7943 25.0284 12.3123 27.8737 13.3348C27.9228 13.3575 27.9744 13.3747 28.0274 13.386H28.2195C28.273 13.3767 28.3248 13.3594 28.3732 13.3348C31.2182 12.3112 34.2203 11.7931 37.2439 11.804C42.3677 11.8745 51.9749 14.5965 51.8147 24.3702C51.661 35.2263 47.1264 46.1593 39.9659 52.8971ZM36.0782 13.5717C33.524 13.561 30.9848 13.9633 28.559 14.763C28.2744 14.8592 27.9661 14.8592 27.6815 14.763C25.2557 13.9633 22.7165 13.561 20.1623 13.5717C15.3715 13.6422 6.31517 16.2425 6.44326 25.6191C6.57776 35.38 10.6896 45.2178 17.1777 51.2383L17.2289 51.2831C18.3127 52.0313 19.4936 52.6282 20.7387 53.0572C21.9414 53.4767 23.2054 53.6931 24.4791 53.6977C25.5504 53.7035 26.6137 53.5147 27.6175 53.1405C27.9394 53.019 28.2946 53.019 28.6166 53.1405C29.6226 53.5147 30.6881 53.7034 31.7614 53.6977C33.035 53.6923 34.2989 53.4758 35.5018 53.0572C36.7469 52.6282 37.9278 52.0313 39.0116 51.2831L39.0692 51.2383C45.5445 45.2178 49.6627 35.38 49.7972 25.6191C49.9573 16.2425 40.8754 13.6422 36.0782 13.5717ZM38.3903 50.3352C38.3369 50.3871 38.279 50.4342 38.2174 50.4761C37.2579 51.1161 36.2205 51.6305 35.1303 52.0068C34.0594 52.4385 32.9124 52.6497 31.7579 52.6277C30.6035 52.6057 29.4653 52.3509 28.4117 51.8787C28.3653 51.8471 28.313 51.8253 28.2579 51.8147H28.1747H28.0786H27.9954C27.9386 51.8265 27.8844 51.8481 27.8352 51.8787C25.869 52.8266 23.6209 52.8779 21.1486 52.026C20.0487 51.6483 19.0024 51.1294 18.0359 50.4825C17.9743 50.4406 17.9164 50.3935 17.863 50.3416C11.6503 44.4876 7.71781 35.0149 7.61534 25.5807C7.49365 17.1328 15.8071 14.7758 20.2199 14.6926C22.8396 14.682 25.4409 15.1307 27.9057 16.0184C27.9525 16.04 28.0021 16.0551 28.053 16.0632C28.0804 16.0695 28.1089 16.0695 28.1363 16.0632H28.2387C28.2897 16.0551 28.3392 16.04 28.386 16.0184C30.8487 15.1436 33.4457 14.7079 36.059 14.731C40.4719 14.7886 48.7789 17.1456 48.6636 25.6191C48.5355 35.0149 44.603 44.4876 38.3903 50.3352ZM34.8741 16.582C32.7344 16.5692 30.6066 16.9001 28.5718 17.5619C28.2916 17.658 27.9873 17.658 27.7071 17.5619C25.6715 16.9038 23.5442 16.573 21.4048 16.582C17.293 16.6524 9.60722 18.8557 9.7161 26.8296C9.83139 35.1558 13.322 43.4821 18.8301 48.6059L18.8749 48.6443C19.7966 49.2868 20.8033 49.7977 21.866 50.1623C22.8945 50.5276 23.9769 50.7181 25.0684 50.7259C25.9542 50.7303 26.8341 50.5807 27.6687 50.2839C27.9808 50.1687 28.3237 50.1687 28.6358 50.2839C29.4684 50.5801 30.3461 50.7297 31.2298 50.7259C32.3211 50.7174 33.4035 50.5269 34.4322 50.1623C35.4857 49.8043 36.4855 49.3044 37.404 48.6763L37.4488 48.6379C42.9569 43.5141 46.4155 35.1879 46.5628 26.8617C46.6717 18.8557 38.9667 16.6524 34.8741 16.582ZM36.7955 47.7028C36.7403 47.7572 36.6803 47.8065 36.6162 47.8501C35.886 48.3433 32.0176 50.7451 28.4181 49.0094C28.3718 48.9836 28.3222 48.9643 28.2708 48.9517H28.1875H28.0978H28.021C27.9715 48.9643 27.9241 48.9837 27.8801 49.0094C27.0029 49.4043 26.0553 49.6186 25.0936 49.6395C24.1318 49.6604 23.1758 49.4875 22.2823 49.1311C21.3644 48.8168 20.4905 48.3863 19.6819 47.8501C19.6178 47.8065 19.5578 47.7572 19.5026 47.7028C14.2443 42.7647 10.933 34.7716 10.8241 26.8168C10.7217 19.7203 17.7093 17.7476 21.4176 17.6964C23.6265 17.689 25.8198 18.0661 27.8993 18.8108L28.0402 18.8557H28.2323C28.2833 18.8475 28.3328 18.8325 28.3796 18.8108C30.4585 18.0636 32.6522 17.6864 34.8613 17.6964C38.5632 17.7476 45.5509 19.7203 45.4548 26.8168C45.3459 34.7716 42.0282 42.7647 36.8019 47.7028H36.7955ZM33.5931 19.5922C31.8551 19.5806 30.1261 19.8422 28.4693 20.3672C28.1968 20.4567 27.9028 20.4567 27.6303 20.3672C25.9742 19.839 24.2447 19.5774 22.5065 19.5922C19.2144 19.6371 12.8416 21.4752 12.9377 28.0722C13.0274 34.8933 15.8967 41.7528 20.4249 46.0055L20.4697 46.044C21.2306 46.5833 22.0626 47.0144 22.942 47.3249C23.7912 47.6289 24.6852 47.7891 25.5872 47.7989C26.2838 47.7993 26.976 47.6868 27.6367 47.4658C27.9433 47.3569 28.278 47.3569 28.5846 47.4658C29.2431 47.6869 29.9331 47.7994 30.6277 47.7989C31.5442 47.7728 32.4495 47.5909 33.3049 47.2609C34.1843 46.9504 35.0163 46.5193 35.7772 45.9799L35.822 45.9415C40.3502 41.7528 43.1875 34.8933 43.2772 28.0722C43.3732 21.4752 37.0005 19.6371 33.6252 19.5922H33.5931ZM35.1303 45.0769L34.9381 45.2306C34.2977 45.6725 31.2041 47.5171 28.3476 46.1465C28.3144 46.1329 28.2801 46.1222 28.2451 46.1144H27.9697C27.9203 46.1269 27.8729 46.1463 27.8288 46.1721C27.1258 46.4868 26.3669 46.6575 25.5969 46.674C24.8268 46.6905 24.0613 46.5525 23.3455 46.2681C22.6124 46.0127 21.9134 45.6686 21.2639 45.2434C21.1961 45.1995 21.1318 45.1502 21.0718 45.0961C16.819 41.0611 14.129 34.5538 14.0265 28.0722C13.9433 22.3079 19.6051 20.7387 22.6153 20.6938C24.4118 20.6892 26.1954 20.997 27.8865 21.6033C27.9269 21.6229 27.9701 21.6358 28.0146 21.6418H28.1811L28.3156 21.5969C29.948 21.0118 31.6669 20.7043 33.401 20.6874H33.5803C36.5906 20.7323 42.2524 22.3271 42.1691 28.0658C42.1051 34.5346 39.4151 41.0418 35.1623 45.0769H35.1303ZM32.4339 22.7114C31.116 22.7015 29.8045 22.896 28.5462 23.2878C28.2836 23.3712 28.0017 23.3712 27.7392 23.2878C26.4806 22.8968 25.1693 22.7024 23.8515 22.7114C22.1881 22.7434 20.5616 23.2069 19.1311 24.0564C18.2113 24.603 17.4572 25.3893 16.9496 26.3313C16.4419 27.2733 16.1998 28.3354 16.249 29.4044C16.3258 34.7331 18.5675 40.0939 22.103 43.386L22.1478 43.4244C22.7386 43.842 23.3855 44.1741 24.0692 44.4108C24.7394 44.651 25.4453 44.7766 26.1572 44.7822C26.672 44.7843 27.1841 44.7065 27.6751 44.5517C27.9629 44.462 28.2712 44.462 28.559 44.5517C29.0505 44.7043 29.5622 44.782 30.0769 44.7822C31.5258 44.7288 32.9279 44.2548 34.1119 43.418L34.1568 43.3796C37.6922 40.0875 39.9211 34.7267 40.0107 29.3979C40.1068 24.1973 35.0919 22.7498 32.4339 22.7114ZM33.5867 42.5213C33.5233 42.5853 33.4524 42.6412 33.3754 42.6879C32.7797 43.0722 30.4804 44.3915 28.3668 43.3283H28.2772H28.2131H28.1234H28.053H27.9633C25.8498 44.3659 23.544 43.0465 22.9548 42.6879C22.8778 42.6412 22.8068 42.5853 22.7434 42.5213C19.6627 39.146 17.357 34.3873 17.293 29.3851C17.2353 25.0043 21.5714 23.781 23.8771 23.7489C25.2586 23.7462 26.6302 23.9824 27.9313 24.4471C27.9698 24.4656 28.0108 24.4785 28.053 24.4855H28.2451C28.2873 24.4785 28.3283 24.4656 28.3668 24.4471C29.6677 23.9815 31.0394 23.7453 32.4211 23.7489C34.7268 23.781 39.0628 25.0299 39.0052 29.3851C38.8426 34.2741 36.9182 38.9395 33.5867 42.5213Z" fill="#B3B3B3"/>
</g>
<defs>
<clipPath id="clip0_92_218">
<rect width="202.205" height="60" fill="white"/>
</clipPath>
</defs>
</svg>
