<svg width="1920" height="1106" viewBox="0 0 1920 1106" fill="none" xmlns="http://www.w3.org/2000/svg">
<rect width="1920" height="1106" fill="#FFDE36" fill-opacity="0.6"/>
<g opacity="0.3">
<path fill-rule="evenodd" clip-rule="evenodd" d="M620.099 56.4453C565.757 56.1462 511.741 64.8354 460.245 82.1596C455.577 83.8067 450.484 83.8067 445.816 82.1596C394.323 64.8261 340.305 56.1367 285.962 56.4453C185.886 57.9881 -2.31056 111.885 0.369132 305.669C3.25495 510.253 89.3142 715.762 225.051 842.071L225.875 842.688C248.517 858.23 273.214 870.553 299.258 879.305C324.219 888.159 350.479 892.816 376.968 893.088C400.283 893.201 423.406 888.872 445.094 880.334C450.449 878.172 456.436 878.172 461.791 880.334C483.485 888.855 506.604 893.183 529.917 893.088C556.268 892.78 582.387 888.123 607.216 879.305C633.282 870.61 657.987 858.282 680.598 842.688L681.422 842.071C816.747 715.762 902.909 510.253 905.692 305.669C908.371 111.885 720.072 57.9881 620.099 56.4453ZM670.291 826.951C669.446 827.76 668.551 828.515 667.612 829.214C652.667 839.499 551.973 904.197 458.184 859.145C456.896 858.288 455.401 857.79 453.855 857.705H452.412C450.908 857.839 449.458 858.333 448.186 859.145C354.5 904.197 253.703 839.397 238.861 829.214C237.87 828.542 236.939 827.785 236.079 826.951C104.877 703.522 21.7036 504.287 18.9208 305.463C17.7871 225.646 50.974 164.137 117.348 122.891C168.669 92.7834 226.857 76.2828 286.374 74.9596C341.801 74.8172 396.831 84.2836 449.011 102.937C449.808 103.396 450.68 103.71 451.587 103.863H454.679C455.607 103.663 456.507 103.352 457.359 102.937C509.5 84.269 564.498 74.8019 619.893 74.9596C679.377 76.2866 737.53 92.7876 788.816 122.891C855.293 164.034 888.377 225.749 887.243 305.463C884.563 504.287 801.39 703.83 670.291 826.951ZM600.207 104.48C552.676 104.206 505.424 111.747 460.348 126.8C455.663 128.346 450.604 128.346 445.919 126.8C400.902 111.655 353.668 104.111 306.163 104.48C217.836 105.714 51.4894 153.337 53.8598 324.698C56.4365 504.904 132.292 686.036 251.951 797.842L252.672 798.459C272.565 812.251 294.278 823.224 317.191 831.065C339.264 838.933 362.498 843.07 385.935 843.305C406.053 843.524 426.038 840.037 444.888 833.019C450.228 830.967 456.142 830.967 461.482 833.019C480.329 840.046 500.316 843.534 520.435 843.305C543.872 843.061 567.104 838.924 589.179 831.065C612.079 823.269 633.763 812.292 653.595 798.459L654.419 797.842C774.078 686.55 850.243 505.418 852.407 325.212C854.571 153.337 688.328 105.714 600.001 104.48H600.207ZM643.494 782.516C642.674 783.322 641.777 784.046 640.815 784.676C626.901 794.139 539.399 849.991 457.771 810.802C456.944 810.309 456.037 809.961 455.092 809.774C454.612 809.716 454.128 809.716 453.649 809.774H452.206H450.763C449.845 809.944 448.969 810.294 448.186 810.802C366.662 849.888 278.645 794.139 265.143 784.676C264.167 784.021 263.237 783.3 262.36 782.516C147.237 674.31 74.2667 498.733 71.7931 324.389C69.6288 167.429 224.123 123.714 306.163 122.583C354.815 122.427 403.122 130.746 448.908 147.166C449.699 147.531 450.529 147.807 451.381 147.988H454.473C455.334 147.839 456.168 147.561 456.947 147.166C502.728 130.727 551.038 122.408 599.692 122.583C682.144 123.714 836.741 167.429 834.165 324.389C831.691 498.733 758.721 674.31 643.494 782.516ZM580.934 150.971C539.832 150.799 498.972 157.26 459.936 170.103C455.356 171.647 450.395 171.647 445.816 170.103C406.78 157.26 365.92 150.799 324.818 150.971C247.725 152.103 101.991 193.863 104.052 344.446C106.217 501.201 172.385 659.19 276.789 755.876L277.614 756.596C295.055 768.612 314.056 778.198 334.093 785.088C353.446 791.824 373.787 795.3 394.283 795.374C411.521 795.467 428.633 792.435 444.785 786.425C449.966 784.475 455.682 784.475 460.863 786.425C477.051 792.434 494.197 795.466 511.468 795.374C531.963 795.287 552.302 791.811 571.658 785.088C591.695 778.198 610.697 768.612 628.138 756.596L629.065 755.876C733.264 659.19 799.535 501.201 801.699 344.446C804.276 193.863 658.13 152.103 580.934 150.971ZM618.14 741.373C617.281 742.207 616.349 742.964 615.358 743.636C599.919 753.914 583.224 762.176 565.68 768.219C548.447 775.152 529.99 778.543 511.413 778.19C492.836 777.836 474.521 773.745 457.565 766.162C456.82 765.654 455.978 765.304 455.092 765.134H453.752H452.206H450.866C449.953 765.323 449.081 765.671 448.289 766.162C416.648 781.385 380.473 782.208 340.69 768.528C322.989 762.461 306.152 754.129 290.6 743.739C289.608 743.067 288.677 742.31 287.817 741.476C187.844 647.464 124.562 495.338 122.913 343.829C120.955 208.16 254.733 170.309 325.745 168.971C367.901 168.802 409.76 176.008 449.423 190.263C450.177 190.61 450.974 190.852 451.794 190.983C452.234 191.084 452.693 191.084 453.133 190.983H454.783C455.602 190.852 456.4 190.61 457.153 190.263C496.781 176.215 538.573 169.217 580.625 169.589C651.637 170.514 785.312 208.366 783.457 344.446C781.395 495.338 718.113 647.464 618.14 741.373ZM561.558 199.314C527.126 199.109 492.885 204.423 460.142 215.052C455.633 216.595 450.737 216.595 446.228 215.052C413.47 204.483 379.239 199.171 344.812 199.314C278.645 200.446 154.967 235.829 156.719 363.886C158.574 497.601 214.744 631.316 303.38 713.602L304.102 714.219C318.933 724.537 335.132 732.741 352.233 738.596C368.783 744.464 386.202 747.523 403.765 747.648C418.02 747.719 432.179 745.317 445.61 740.551C450.632 738.7 456.151 738.7 461.173 740.551C474.57 745.307 488.694 747.709 502.914 747.648C520.476 747.512 537.893 744.453 554.446 738.596C571.4 732.848 587.489 724.82 602.268 714.733L602.99 714.116C691.626 631.83 747.281 498.115 749.651 364.401C751.403 235.829 627.416 200.446 561.558 199.314ZM592.477 699.099C591.589 699.973 590.623 700.765 589.591 701.465C577.842 709.385 515.591 747.956 457.668 720.082C456.923 719.668 456.126 719.357 455.298 719.156H453.958H452.515H451.278C450.483 719.357 449.72 719.669 449.011 720.082C434.896 726.424 419.646 729.865 404.171 730.201C388.695 730.537 373.31 727.76 358.932 722.036C344.162 716.989 330.099 710.076 317.088 701.465C316.056 700.765 315.09 699.973 314.202 699.099C229.586 619.796 176.301 491.43 174.549 363.681C172.9 249.715 285.344 218.034 345.018 217.212C380.563 217.093 415.857 223.149 449.32 235.109L451.587 235.829H454.679C455.499 235.698 456.297 235.456 457.05 235.109C490.503 223.108 525.804 217.05 561.352 217.212C620.923 218.034 733.367 249.715 731.821 363.681C730.069 491.43 676.681 619.796 592.58 699.099H592.477ZM540.945 247.657C512.977 247.471 485.154 251.671 458.493 260.103C454.107 261.54 449.377 261.54 444.991 260.103C418.342 251.621 390.511 247.42 362.539 247.657C309.564 248.377 207.014 277.898 208.56 383.841C210.003 493.384 256.176 603.544 329.043 671.842L329.765 672.459C342.008 681.121 355.397 688.044 369.548 693.03C383.213 697.913 397.6 700.485 412.114 700.642C423.325 700.648 434.462 698.842 445.094 695.293C450.028 693.544 455.415 693.544 460.348 695.293C470.944 698.844 482.048 700.65 493.226 700.642C507.973 700.223 522.542 697.301 536.307 692.002C550.458 687.015 563.847 680.092 576.09 671.43L576.811 670.813C649.678 603.544 695.336 493.384 696.779 383.841C698.325 277.898 595.775 248.377 541.46 247.657H540.945ZM565.68 656.927L562.588 659.396C552.282 666.493 502.502 696.116 456.535 674.105C456 673.887 455.449 673.715 454.886 673.59H450.454C449.658 673.791 448.895 674.103 448.186 674.516C436.874 679.57 424.662 682.311 412.27 682.576C399.879 682.841 387.56 680.625 376.041 676.059C364.245 671.957 352.996 666.43 342.545 659.602C341.453 658.897 340.419 658.105 339.453 657.236C271.018 592.436 227.73 487.933 226.081 383.841C224.742 291.269 315.851 266.069 364.292 265.349C393.2 265.275 421.902 270.217 449.114 279.955C449.764 280.268 450.46 280.477 451.175 280.572H453.855L456.019 279.852C482.288 270.454 509.949 265.517 537.853 265.246H540.739C589.179 265.966 680.289 291.578 678.949 383.738C677.918 487.624 634.631 592.127 566.196 656.927H565.68ZM522.29 297.749C501.083 297.591 479.979 300.714 459.73 307.006C455.505 308.346 450.968 308.346 446.743 307.006C426.491 300.727 405.39 297.605 384.183 297.749C357.417 298.264 331.243 305.707 308.224 319.349C293.422 328.128 281.288 340.756 273.119 355.883C264.95 371.011 261.053 388.069 261.845 405.235C263.082 490.813 299.154 576.904 356.046 629.773L356.768 630.39C366.276 637.096 376.685 642.429 387.687 646.23C398.471 650.089 409.83 652.106 421.286 652.196C429.571 652.228 437.811 650.979 445.713 648.493C450.344 647.053 455.305 647.053 459.936 648.493C467.845 650.945 476.08 652.193 484.362 652.196C507.678 651.338 530.239 643.726 549.293 630.287L550.015 629.67C606.906 576.801 642.773 490.71 644.216 405.132C645.762 321.612 565.062 298.366 522.29 297.749ZM540.842 615.887C539.822 616.914 538.68 617.812 537.441 618.562C527.856 624.733 490.855 645.922 456.844 628.847H455.401H454.37H452.927H451.794H450.351C416.339 645.51 379.236 624.322 369.754 618.562C368.515 617.812 367.373 616.914 366.353 615.887C316.779 561.681 279.675 485.258 278.645 404.927C277.717 334.572 347.492 314.926 384.595 314.412C406.827 314.368 428.899 318.161 449.835 325.623C450.455 325.921 451.115 326.129 451.794 326.241H454.886C455.564 326.129 456.224 325.921 456.844 325.623C477.777 318.147 499.851 314.353 522.084 314.412C559.187 314.926 628.962 334.983 628.035 404.927C625.419 483.441 594.452 558.365 540.842 615.887Z" fill="white"/>
</g>
</svg>
