<svg width="17" height="17" viewBox="0 0 17 17" fill="none" xmlns="http://www.w3.org/2000/svg">
<path fill-rule="evenodd" clip-rule="evenodd" d="M11.2537 0.207C10.2934 0.201281 9.33881 0.367451 8.42877 0.698757C8.34627 0.730256 8.25627 0.730256 8.17377 0.698757C7.26378 0.367274 6.30917 0.2011 5.34881 0.207C3.58025 0.236505 0.254414 1.26723 0.30177 4.97311C0.352769 8.88553 1.87362 12.8157 4.27238 15.2312L4.28695 15.243C4.68708 15.5402 5.12353 15.7759 5.58377 15.9432C6.02489 16.1125 6.48897 16.2016 6.95709 16.2068C7.36912 16.209 7.77774 16.1262 8.16102 15.9629C8.25565 15.9216 8.36146 15.9216 8.45609 15.9629C8.83946 16.1258 9.24802 16.2086 9.66002 16.2068C10.1257 16.2009 10.5873 16.1119 11.0261 15.9432C11.4867 15.7769 11.9233 15.5412 12.3229 15.243L12.3374 15.2312C14.7289 12.8157 16.2516 8.88553 16.3008 4.97311C16.3481 1.26723 13.0205 0.236505 11.2537 0.207ZM12.1407 14.942C12.1258 14.9575 12.11 14.9719 12.0934 14.9853C11.8293 15.182 10.0498 16.4192 8.39234 15.5577C8.36958 15.5413 8.34316 15.5318 8.31584 15.5302H8.29034C8.26376 15.5327 8.23814 15.5422 8.21567 15.5577C6.56003 16.4192 4.77872 15.18 4.51644 14.9853C4.49892 14.9724 4.48246 14.958 4.46727 14.942C2.14865 12.5816 0.678795 8.77144 0.629618 4.96918C0.609583 3.44276 1.19607 2.26648 2.36904 1.4777C3.276 0.901924 4.3043 0.58637 5.3561 0.561065C6.3356 0.558341 7.3081 0.739376 8.23024 1.0961C8.24432 1.10488 8.25974 1.11087 8.27577 1.1138H8.33041C8.3468 1.10999 8.3627 1.10404 8.37777 1.0961C9.2992 0.739096 10.2712 0.55805 11.2501 0.561065C12.3013 0.586443 13.329 0.902004 14.2353 1.4777C15.4101 2.26451 15.9948 3.44473 15.9747 4.96918C15.9274 8.77144 14.4575 12.5875 12.1407 14.942ZM10.9022 1.1256C10.0622 1.12037 9.22717 1.26458 8.43059 1.55245C8.34779 1.58201 8.25839 1.58201 8.17559 1.55245C7.38004 1.26281 6.54532 1.11855 5.7058 1.1256C4.14488 1.14921 1.20517 2.05994 1.24707 5.33701C1.2926 8.78324 2.63314 12.2472 4.74776 14.3853L4.76051 14.3971C5.11206 14.6609 5.49578 14.8707 5.90069 15.0207C6.29077 15.1712 6.70136 15.2503 7.11555 15.2548C7.47107 15.259 7.82426 15.1923 8.15738 15.0581C8.25175 15.0188 8.35625 15.0188 8.45062 15.0581C8.7837 15.1924 9.13692 15.2591 9.49245 15.2548C9.90663 15.2501 10.3172 15.171 10.7073 15.0207C11.112 14.8716 11.4952 14.6617 11.8457 14.3971L11.8602 14.3853C13.9749 12.257 15.3209 8.79308 15.3591 5.34685C15.3974 2.05994 12.4595 1.14921 10.8986 1.1256H10.9022ZM11.6672 14.0923C11.6527 14.1077 11.6368 14.1215 11.6198 14.1336C11.3739 14.3145 9.82759 15.3826 8.38505 14.6332C8.37042 14.6238 8.35441 14.6171 8.3377 14.6135C8.32923 14.6124 8.32067 14.6124 8.3122 14.6135H8.2612C8.24497 14.6168 8.2295 14.6235 8.21567 14.6332C6.77495 15.3807 5.2195 14.3145 4.98089 14.1336C4.96364 14.121 4.94721 14.1072 4.93172 14.0923C2.89724 12.0229 1.6077 8.66522 1.56399 5.33111C1.52574 2.32942 4.25599 1.49344 5.7058 1.4718C6.5656 1.46882 7.41927 1.62791 8.22842 1.94192C8.24239 1.94891 8.25706 1.95419 8.27213 1.95766H8.32677C8.34199 1.95479 8.35672 1.94949 8.37048 1.94192C9.17954 1.62756 10.0333 1.46845 10.8931 1.4718C12.3502 1.49344 15.0823 2.32942 15.0367 5.33111C14.993 8.66522 13.7035 12.0229 11.6672 14.0923ZM10.5616 2.0147C9.83524 2.0114 9.11315 2.13495 8.4233 2.38057C8.34237 2.4101 8.2547 2.4101 8.17377 2.38057C7.48392 2.13495 6.76184 2.0114 6.03547 2.0147C4.67308 2.03634 2.09765 2.83495 2.13408 5.71468C2.17233 8.71243 3.34165 11.7338 5.18671 13.5828L5.20128 13.5966C5.5095 13.8264 5.8453 14.0097 6.1994 14.1414C6.54141 14.2702 6.90087 14.3367 7.26308 14.3381C7.56772 14.3399 7.87012 14.2819 8.15556 14.167C8.24712 14.1297 8.34813 14.1297 8.43969 14.167C8.72577 14.2819 9.02877 14.3399 9.33399 14.3381C9.69618 14.3365 10.0556 14.27 10.3977 14.1414C10.7518 14.0097 11.0876 13.8264 11.3958 13.5966L11.4122 13.5828C13.2536 11.7338 14.4247 8.71243 14.463 5.71468C14.5085 2.83495 11.9258 2.03634 10.5616 2.0147ZM11.2191 13.3054C11.2039 13.3214 11.1875 13.3359 11.1699 13.3487C10.8971 13.5453 10.6021 13.7033 10.292 13.8188C9.98749 13.9514 9.66131 14.0163 9.33301 14.0095C9.00471 14.0028 8.68105 13.9245 8.38141 13.7795C8.36824 13.7698 8.35336 13.7631 8.3377 13.7598H8.26302C8.24689 13.7634 8.23148 13.7701 8.21749 13.7795C7.65832 14.0706 7.01902 14.0864 6.31597 13.8247C6.00317 13.7087 5.70562 13.5494 5.43078 13.3507C5.41325 13.3378 5.39679 13.3234 5.3816 13.3074C3.61486 11.5095 2.49653 8.60031 2.46739 5.70288C2.43278 3.10837 4.79693 2.3845 6.05187 2.35893C6.79685 2.35569 7.5366 2.4935 8.23752 2.7661C8.25084 2.77274 8.26493 2.77737 8.27941 2.77987C8.2872 2.78181 8.2953 2.78181 8.30309 2.77987H8.33223C8.34671 2.77737 8.36081 2.77274 8.37413 2.7661C9.07444 2.49745 9.81298 2.36363 10.5561 2.37073C11.8111 2.38843 14.1734 3.1123 14.1406 5.71468C14.1042 8.60031 12.9859 11.5095 11.2191 13.3054ZM10.2192 2.9392C9.61071 2.93528 9.00559 3.03689 8.42695 3.24016C8.34726 3.26968 8.26074 3.26968 8.18106 3.24016C7.60216 3.03804 6.99722 2.93646 6.38882 2.9392C5.21949 2.96084 3.03384 3.6375 3.0648 6.08645C3.09759 8.64358 4.09024 11.2007 5.65663 12.7743L5.66938 12.7861C5.93147 12.9835 6.21776 13.1404 6.51996 13.2523C6.81244 13.3645 7.12027 13.4231 7.43065 13.4254C7.68256 13.4268 7.93278 13.3809 8.17013 13.2897C8.25888 13.2543 8.35641 13.2543 8.44516 13.2897C8.68193 13.3807 8.93151 13.4266 9.18282 13.4254C9.49318 13.4228 9.80097 13.3643 10.0935 13.2523C10.3931 13.1424 10.6774 12.9889 10.9386 12.796L10.9514 12.7842C12.5178 11.2106 13.5013 8.65342 13.5432 6.09628C13.5742 3.6375 11.383 2.96084 10.2192 2.9392ZM10.7656 12.497C10.7499 12.5137 10.7328 12.5289 10.7146 12.5422C10.507 12.6937 9.40685 13.4313 8.38323 12.8983C8.37007 12.8904 8.35598 12.8844 8.34134 12.8806H8.27031C8.25625 12.8844 8.24276 12.8904 8.23024 12.8983C7.9808 13.0195 7.7113 13.0854 7.43781 13.0918C7.16432 13.0982 6.89243 13.0451 6.63835 12.9356C6.37732 12.8391 6.12881 12.7069 5.89887 12.5422C5.88064 12.5289 5.86357 12.5137 5.84787 12.497C4.35252 10.9804 3.41087 8.52556 3.3799 6.08251C3.35076 3.90305 5.33788 3.2972 6.39246 3.28147C7.02061 3.27919 7.64433 3.39501 8.2357 3.62373L8.27577 3.6375H8.33041C8.34489 3.635 8.35899 3.63037 8.3723 3.62373C8.96348 3.39422 9.58733 3.27838 10.2155 3.28147C11.2683 3.2972 13.2554 3.90305 13.2281 6.08251C13.1971 8.52556 12.2537 10.9804 10.7674 12.497H10.7656ZM9.85491 3.86371C9.36066 3.86015 8.86897 3.94046 8.3978 4.10172C8.3203 4.12919 8.2367 4.12919 8.1592 4.10172C7.68825 3.9395 7.19641 3.85916 6.7021 3.86371C5.76591 3.87748 3.95364 4.44201 3.98096 6.46805C4.00646 8.56294 4.82243 10.6696 6.11015 11.9757L6.1229 11.9875C6.33926 12.1532 6.57587 12.2856 6.82595 12.3809C7.06745 12.4743 7.32169 12.5235 7.57818 12.5265C7.7763 12.5266 7.97313 12.4921 8.16102 12.4242C8.24821 12.3908 8.3434 12.3908 8.43059 12.4242C8.61784 12.4921 8.81408 12.5267 9.01161 12.5265C9.27223 12.5185 9.52969 12.4626 9.77294 12.3613C10.023 12.2659 10.2596 12.1335 10.476 11.9679L10.4887 11.9561C11.7765 10.6696 12.5833 8.56294 12.6088 6.46805C12.6362 4.44201 10.8239 3.87748 9.86401 3.86371H9.85491ZM10.292 11.6905L10.2374 11.7377C10.0553 11.8734 9.17553 12.4399 8.3632 12.019C8.35375 12.0149 8.34401 12.0116 8.33405 12.0092H8.25573C8.24168 12.013 8.22819 12.019 8.21567 12.0269C8.01575 12.1235 7.79993 12.1759 7.58095 12.181C7.36196 12.1861 7.14426 12.1437 6.9407 12.0564C6.73224 11.9779 6.53344 11.8722 6.34875 11.7417C6.32945 11.7282 6.31118 11.713 6.29411 11.6964C5.08471 10.4572 4.31973 8.45868 4.29059 6.46805C4.26691 4.69773 5.87701 4.2158 6.73306 4.20203C7.24394 4.20062 7.75116 4.29513 8.23206 4.48135C8.24354 4.48735 8.25584 4.49133 8.26849 4.49316H8.31584L8.35409 4.47939C8.81831 4.29967 9.30714 4.20526 9.80027 4.20007H9.85126C10.7073 4.21384 12.3174 4.70363 12.2937 6.46608C12.2755 8.45278 11.5105 10.4513 10.3011 11.6905H10.292ZM9.52524 4.82165C9.15046 4.81864 8.77751 4.87836 8.41966 4.99868C8.345 5.02431 8.26482 5.02431 8.19017 4.99868C7.83227 4.8786 7.45935 4.81889 7.08459 4.82165C6.61157 4.8315 6.14902 4.97383 5.74223 5.23472C5.48064 5.40261 5.26621 5.64411 5.12184 5.9334C4.97748 6.22269 4.90862 6.54891 4.92261 6.87719C4.94447 8.51376 5.58195 10.1602 6.58735 11.1712L6.6001 11.183C6.76813 11.3113 6.95208 11.4132 7.14652 11.4859C7.3371 11.5597 7.53783 11.5983 7.74028 11.6C7.8867 11.6006 8.03231 11.5768 8.17195 11.5292C8.2538 11.5017 8.34146 11.5017 8.4233 11.5292C8.56308 11.5761 8.7086 11.6 8.85497 11.6C9.26701 11.5836 9.66572 11.438 10.0024 11.1811L10.0152 11.1692C11.0206 10.1582 11.6544 8.51179 11.6799 6.87523C11.7073 5.278 10.2811 4.83345 9.52524 4.82165ZM9.85309 10.9057C9.83506 10.9253 9.81488 10.9425 9.79298 10.9568C9.62359 11.0748 8.96972 11.48 8.36866 11.1535H8.25391C7.65286 11.4722 6.99716 11.067 6.8296 10.9568C6.8077 10.9425 6.78751 10.9253 6.76949 10.9057C5.89341 9.86904 5.23771 8.40754 5.2195 6.87129C5.2031 5.52584 6.43618 5.15014 7.09187 5.14031C7.48476 5.13947 7.87481 5.212 8.24481 5.35471C8.25576 5.36041 8.26742 5.36438 8.27941 5.36652H8.33405C8.34605 5.36438 8.35771 5.36041 8.36866 5.35471C8.73859 5.21173 9.12869 5.13919 9.52159 5.14031C10.1773 5.15014 11.4104 5.53371 11.394 6.87129C11.3477 8.37278 10.8005 9.80562 9.85309 10.9057Z" fill="black"/>
</svg>
